<svg width="72" height="72" viewBox="0 0 72 72" fill="none" xmlns="http://www.w3.org/2000/svg">
<path fill-rule="evenodd" clip-rule="evenodd" d="M36 72C55.8822 72 72 55.8822 72 36C72 16.1177 55.8822 0 36 0C16.1177 0 0 16.1177 0 36C0 55.8822 16.1177 72 36 72Z" fill="#F2F5F7"/>
<mask id="mask0_1057_64" style="mask-type:alpha" maskUnits="userSpaceOnUse" x="0" y="0" width="72" height="72">
<path fill-rule="evenodd" clip-rule="evenodd" d="M36 72C55.8822 72 72 55.8822 72 36C72 16.1177 55.8822 0 36 0C16.1177 0 0 16.1177 0 36C0 55.8822 16.1177 72 36 72Z" fill="white"/>
</mask>
<g mask="url(#mask0_1057_64)">
<path fill-rule="evenodd" clip-rule="evenodd" d="M23.8442 28.1469C20.8577 27.1652 18.7013 24.3539 18.7013 21.0389L21.344 21.425C20.5603 20.2422 20.1039 18.8237 20.1039 17.2986L23.8442 17.8451V15.896L44.6459 19.0359C46.9326 19.381 48.6234 21.3462 48.6234 23.6588V31.9099C50.2366 32.3251 51.4286 33.7895 51.4286 35.5324C51.4286 37.2752 50.2366 38.7396 48.6234 39.1548V40.6752H48.6039C48.3671 44.9182 45.9955 48.5911 42.5455 50.6376V52.8311H46.7533C49.2125 52.8311 51.2283 54.7298 51.4146 57.1412C55.9203 57.812 59.3767 61.6971 59.3767 66.3895V79.0129H13.0909V66.3895C13.0909 61.5344 16.7912 57.5435 21.5254 57.0832C21.7393 54.6994 23.7424 52.8311 26.1819 52.8311H29.9221V50.6376C26.4721 48.5911 24.1005 44.9182 23.8637 40.6752H23.8442V39.2726C21.7785 39.2726 20.1039 37.598 20.1039 35.5324C20.1039 33.4667 21.7785 31.7921 23.8442 31.7921V28.1469Z" fill="#C2D1D9"/>
</g>
</svg>
