<svg width="245" height="184" viewBox="0 0 245 184" fill="none" xmlns="http://www.w3.org/2000/svg">
<rect width="243.907" height="184" rx="1.06977" fill="#F2F5F7"/>
<rect x="0.267442" y="0.267442" width="243.372" height="183.465" rx="0.802326" stroke="#C2D1D9" stroke-width="0.534884"/>
<g clip-path="url(#clip0_997_671)">
<path d="M6.41895 5.88367L237.293 177.763" stroke="#C2D1D9" stroke-width="0.534884"/>
<path d="M237.293 5.88367L6.41887 177.763" stroke="#C2D1D9" stroke-width="0.534884"/>
</g>
<rect x="103.813" y="77.0233" width="36.3721" height="29.9535" rx="2.13953" fill="#F2F5F7"/>
<path fill-rule="evenodd" clip-rule="evenodd" d="M138.047 77.0232H105.954C104.772 77.0232 103.814 77.9811 103.814 79.1627V104.837C103.814 106.019 104.772 106.977 105.954 106.977H138.047C139.229 106.977 140.187 106.019 140.187 104.837V79.1627C140.187 77.9811 139.229 77.0232 138.047 77.0232ZM105.954 104.837V79.1627H138.047V104.837H105.954Z" fill="#C2D1D9"/>
<path fill-rule="evenodd" clip-rule="evenodd" d="M109.698 85.8489C109.698 88.0645 111.494 89.8605 113.71 89.8605C115.925 89.8605 117.721 88.0645 117.721 85.8489C117.721 83.6333 115.925 81.8373 113.71 81.8373C111.494 81.8373 109.698 83.6333 109.698 85.8489ZM115.582 85.8489C115.582 86.8828 114.744 87.721 113.71 87.721C112.676 87.721 111.838 86.8828 111.838 85.8489C111.838 84.815 112.676 83.9768 113.71 83.9768C114.744 83.9768 115.582 84.815 115.582 85.8489Z" fill="#C2D1D9"/>
<path d="M111.52 102.388C111.101 102.804 110.423 102.801 110.007 102.381C109.591 101.962 109.594 101.284 110.014 100.868L118.812 92.1455L123.771 96.4589C124.217 96.8467 124.264 97.5224 123.877 97.9681C123.489 98.4139 122.813 98.461 122.367 98.0732L118.908 95.0639L111.52 102.388Z" fill="#C2D1D9"/>
<path d="M119.547 102.384C119.129 102.802 118.452 102.802 118.034 102.384C117.616 101.967 117.616 101.289 118.034 100.871L132.114 86.7906L139.822 93.5539C140.266 93.9436 140.31 94.6195 139.92 95.0636C139.53 95.5077 138.855 95.5518 138.411 95.1622L132.209 89.7209L119.547 102.384Z" fill="#C2D1D9"/>
<defs>
<clipPath id="clip0_997_671">
<rect x="6.41895" y="5.88367" width="231.163" height="172.233" rx="8" fill="white"/>
</clipPath>
</defs>
</svg>
