<svg width="82" height="72" viewBox="0 0 82 72" fill="none" xmlns="http://www.w3.org/2000/svg">
<path fill-rule="evenodd" clip-rule="evenodd" d="M38.9931 69.2206C38.1599 70.3825 38.9941 71.9799 40.4202 71.8765C61.4636 70.3506 78 54.8709 78 36C78 17.1291 61.4636 1.64939 40.4202 0.123474C38.9941 0.0200641 38.1599 1.61747 38.9931 2.77945L62.081 34.9767C62.5196 35.5884 62.5196 36.4116 62.081 37.0233L38.9931 69.2206Z" fill="#E5E5E5"/>
<circle cx="37" cy="36" r="32" fill="#00A62F"/>
<path d="M37.0043 23C28.1667 23 21.0041 28.3194 21.0041 34.8845C21.0041 37.6042 22.2479 40.0954 24.3104 42.1009C23.3792 44.3521 21.4417 46.2605 21.4104 46.2833C20.9979 46.6833 20.8854 47.2661 21.1229 47.7689C21.3604 48.2717 21.9042 48.5974 22.5042 48.5974C26.3479 48.5974 29.3792 47.1289 31.198 45.9519C33.0042 46.4719 34.9543 46.769 37.0043 46.769C45.8418 46.769 53.0044 41.4495 53.0044 34.8845C53.0044 28.3194 45.8418 23 37.0043 23ZM37.0043 44.0264C35.3355 44.0264 33.6855 43.7921 32.1042 43.335L30.6855 42.9237L29.4667 43.7121C28.573 44.2892 27.3479 44.9349 25.8729 45.3691C26.3292 44.6778 26.7729 43.9007 27.1167 43.0722L27.7792 41.4667L26.4917 40.2211C25.3604 39.1183 24.0042 37.2957 24.0042 34.8845C24.0042 29.845 29.8355 25.7426 37.0043 25.7426C44.1731 25.7426 50.0044 29.845 50.0044 34.8845C50.0044 39.924 44.1731 44.0264 37.0043 44.0264Z" fill="white"/>
</svg>
