<svg width="21" height="20" viewBox="0 0 21 20" fill="none" xmlns="http://www.w3.org/2000/svg">
<path d="M10.3693 0.210687C10.5447 0.0741368 10.7607 0 10.983 0C11.2053 0 11.4213 0.0741368 11.5968 0.210687L19.8216 6.61046C20.1823 6.89115 20.4741 7.25059 20.6747 7.66133C20.8754 8.07207 20.9795 8.52324 20.9792 8.98038V18.0001C20.9792 18.5305 20.7685 19.0392 20.3936 19.4142C20.0187 19.7893 19.5102 20 18.9799 20H14.9815C14.4512 20 13.9427 19.7893 13.5678 19.4142C13.1929 19.0392 12.9822 18.5305 12.9822 18.0001V12.0003H8.98379V18.0001C8.98379 18.5305 8.77316 19.0392 8.39823 19.4142C8.0233 19.7893 7.51479 20 6.98456 20H2.98611C2.45588 20 1.94737 19.7893 1.57244 19.4142C1.19751 19.0392 0.986877 18.5305 0.986877 18.0001V8.98038C0.986877 8.05241 1.41471 7.18044 2.14643 6.61046L10.3693 0.210687ZM10.983 2.26661L3.37196 8.18841C3.25146 8.28218 3.15403 8.40231 3.08714 8.5396C3.02026 8.67688 2.9857 8.82766 2.98611 8.98038V18.0001H6.98456V12.0003C6.98456 11.4699 7.1952 10.9612 7.57012 10.5861C7.94505 10.2111 8.45356 10.0003 8.98379 10.0003H12.9822C13.5125 10.0003 14.021 10.2111 14.3959 10.5861C14.7708 10.9612 14.9815 11.4699 14.9815 12.0003V18.0001H18.9799V8.98038C18.9803 8.82766 18.9458 8.67688 18.8789 8.5396C18.812 8.40231 18.7146 8.28218 18.5941 8.18841L10.983 2.26862V2.26661Z" fill="white"/>
</svg>