<svg width="314" height="311" viewBox="0 0 314 311" fill="none" xmlns="http://www.w3.org/2000/svg">
<path d="M14.1732 174.821C13.9305 171.736 13.7433 168.647 13.5942 165.565" stroke="#404040" stroke-width="1.40402" stroke-miterlimit="10"/>
<path d="M189.639 285.801H101.577" stroke="#E5E5E5" stroke-width="1.40402" stroke-miterlimit="10"/>
<path d="M215.348 65.196C215.348 65.196 241.3 52.9411 263.317 76.8511C270.511 84.6651 275.42 95.0341 275.766 105.732C275.924 110.953 275.082 116.154 273.287 121.059C271.461 126.065 268.181 129.379 265.661 133.837C261.795 140.712 269.876 141.928 274.213 145.26C277.095 147.493 279.83 149.911 282.398 152.498C288.187 158.28 293.28 164.717 297.575 171.68C306.08 185.549 311.201 201.225 312.524 217.441C313.831 233.429 312.829 250.79 304.63 264.994C300.685 271.833 294.743 278.542 287.435 281.731C277.728 285.964 266.825 285.804 256.453 285.804H234.38" stroke="#E5E5E5" stroke-width="1.40402" stroke-miterlimit="10"/>
<path d="M107.169 224.96C106.299 231.151 105.002 238.255 103.571 245.365L101.882 245.847C96.479 247.364 90.7409 247.196 85.4361 245.365L87.6479 237.849L74.1831 198.675C74.1831 198.675 84.4758 195.347 92.9277 192.875L93.8984 192.833C98.516 193.808 108.032 197.465 108.33 211.162C108.351 211.821 108.33 212.514 108.33 213.27C109.672 217.69 109.138 221.587 107.169 224.96Z" fill="#00A62F"/>
<path d="M75.4766 75.842C75.3438 75.504 75.0838 75.2319 74.7527 75.0835C74.4216 74.9348 74.0455 74.9223 73.7051 75.0481C73.514 75.1057 73.3379 75.2038 73.1885 75.3359C72.6546 75.7692 72.5333 76.5284 72.516 77.2495C72.4674 78.8962 72.3738 80.5464 72.2525 82.1861C72.2525 82.2971 72.2352 82.4219 72.2352 82.5328C72.1589 83.8536 72.2144 85.4552 71.6528 86.6062C71.6167 86.6939 71.555 86.7688 71.476 86.8211C71.2888 86.9078 71.0912 86.7206 70.9698 86.5507C70.6231 86.0446 70.2765 85.5488 69.9298 85.0323C69.6559 84.6198 69.3474 84.1726 68.869 84.0408C68.1583 83.8432 67.4823 84.4707 67.0906 85.1086C65.8252 87.1886 65.7039 90.5964 67.6626 92.3402C69.6213 94.0839 65.2359 97.5125 62.095 98.9547C61.5691 99.2504 61.0179 99.4986 60.4483 99.6965C60.4206 99.6965 61.5819 99.9565 61.5542 99.9669C59.1102 100.818 56.5642 101.341 53.9829 101.523C50.9183 101.728 47.93 101.343 45.7563 100.012C45.8499 99.6653 46.5918 97.2386 46.6369 96.892C46.7964 95.6821 46.9108 94.4826 46.9836 93.2658C47.1153 90.9812 47.1049 88.6932 47.0182 86.4155C46.7028 78.2202 48.1623 71.3353 51.5458 70.2849C51.8127 70.2048 52.0689 70.0918 52.3085 69.9486C53.8338 69.1062 54.6485 67.3278 53.9482 65.6499C53.8997 65.5355 53.8442 65.4245 53.7957 65.3032C53.7409 65.1836 53.6782 65.0678 53.6085 64.9565C60.216 62.9042 64.702 64.329 69.2365 66.8112C70.0993 67.5007 70.9102 68.2527 71.6632 69.0611C73.4378 70.9879 74.743 73.2992 75.4766 75.8143V75.842Z" fill="#00A62F"/>
<path d="M234.31 154.637H211.776V100.778C211.776 100.778 207.616 147.576 196.218 174.089H126.429C134.656 168.861 141.253 160.964 145.645 152.464C147.379 149.101 150.152 144.109 154.763 145.419C155.858 145.728 157.47 145.925 158.285 144.924C158.566 144.539 158.726 144.079 158.743 143.603C159.138 138.694 154.049 134.562 149.854 133.258C145.659 131.955 140.757 132.565 137.419 135.612C135.013 137.813 133.505 140.736 131.744 143.443C130.687 145.048 129.433 146.514 128.013 147.808C129.823 136.818 131.435 126.314 131.667 122.449C136.081 118.965 139.322 113.283 140.473 108.256C141.738 102.765 142.855 97.3948 144.82 92.2537L160.909 92.3092C161.515 92.3092 162.096 92.0686 162.524 91.6401C162.953 91.2116 163.194 90.6306 163.194 90.0246V63.3031C163.194 62.7026 162.958 62.1265 162.535 61.7001C162.112 61.274 161.537 61.0327 160.937 61.0289L149.982 60.9353C153.963 60.1033 158 59.5642 162.06 59.3233C162.143 59.3233 162.22 59.3233 162.292 59.3233C164.965 59.1465 169.649 59.0702 172.346 59.0425C169.132 60.7758 167.146 64.4575 167.493 67.7093C167.554 68.4019 167.73 69.0793 168.016 69.7131C170.762 75.7452 177.993 77.527 183.963 75.7729C190.605 73.835 195.486 67.7266 195.195 60.6996C199.355 61.3097 203.474 62.0838 207.551 63.0223C213.746 64.4471 219.788 66.3677 224.687 70.5555C228.958 74.1921 232.577 78.8756 234.251 84.1693C241.441 106.804 239.229 132.062 234.31 154.637Z" fill="#404040"/>
<path d="M131.849 122.449C131.342 130.721 130.039 138.985 128.625 147.229" stroke="#404040" stroke-width="1.40402" stroke-miterlimit="10"/>
<path d="M145.002 92.2537C143.033 97.3948 141.92 102.765 140.654 108.256C139.493 113.265 136.259 118.965 131.849 122.449C128.146 125.371 123.612 126.748 118.759 124.903C112.248 122.421 109.963 115.245 109.166 108.918C108.13 101.04 108.067 93.0645 108.979 85.1711C109.898 87.213 113.652 93.4254 125.297 91.7926C125.609 92.0262 125.985 92.1604 126.375 92.1774L145.002 92.2537Z" fill="#404040"/>
<path d="M138.463 74.4805C141.174 73.7871 142.824 76.3941 142.422 78.3771C141.767 81.6115 137.115 82.8838 134.345 82.9428C132.126 82.9878 126.718 82.4019 124.513 82.1454" stroke="#404040" stroke-width="1.40402" stroke-miterlimit="10"/>
<path d="M123.601 76.0808C126.955 77.0501 130.506 77.1087 133.89 76.2507C136.736 75.5192 140.099 74.1706 141.59 71.4631C142.46 69.8892 141.766 67.3793 139.95 66.8247C137.852 66.1903 135.911 68.2772 134.011 68.8042C132.786 69.138 131.535 69.3699 130.271 69.4975C129.924 69.5356 129.598 69.5634 129.262 69.5911C127.493 69.7329 125.714 69.7201 123.947 69.553C123.76 69.553 123.576 69.4937 123.424 69.3838C123.271 69.2736 123.158 69.1182 123.098 68.9397C123.04 68.7615 123.038 68.5688 123.095 68.3895C123.151 68.2103 123.263 68.0533 123.414 67.9409L123.733 67.7087" stroke="#404040" stroke-width="1.40402" stroke-miterlimit="10"/>
<path d="M145.001 92.2537C143.032 97.3948 141.919 102.765 140.654 108.256C138.518 117.474 129.411 128.959 118.758 124.896C112.248 122.414 109.963 115.238 109.166 108.911C107.918 99.1143 108.022 89.0504 109.859 79.3367C111.384 71.3355 114.092 62.9321 121.878 58.9974L125.532 57.1704C126.403 56.7302 127.412 56.6484 128.344 56.9423C129.274 57.2367 130.053 57.8835 130.514 58.7443C130.794 59.2796 130.943 59.8738 130.947 60.4777C130.951 60.5661 130.944 60.6545 130.926 60.7412" stroke="#404040" stroke-width="1.40402" stroke-miterlimit="10"/>
<path d="M219.217 167.454C221.099 167.395 222.983 167.443 224.861 167.596C226.393 167.72 227.981 167.793 229.44 168.365C230.643 168.844 231.898 169.984 231.836 171.378C231.721 174.11 228.144 174.089 226.181 174.089" stroke="#404040" stroke-width="1.40402" stroke-miterlimit="10"/>
<path opacity="0.54" d="M185.547 164.85L201.861 123.052C202.063 122.242 202.078 121.396 201.904 120.58C201.73 119.763 201.371 118.997 200.857 118.34C200.342 117.683 199.684 117.152 198.933 116.787C198.182 116.423 197.357 116.234 196.523 116.236H131.736C130.284 116.239 128.876 116.731 127.737 117.631C126.597 118.532 125.794 119.789 125.455 121.201L107.573 162.989C107.38 163.795 107.371 164.635 107.548 165.446C107.726 166.256 108.085 167.016 108.599 167.668C109.112 168.319 109.767 168.846 110.514 169.209C111.26 169.57 112.079 169.759 112.909 169.759H179.262C180.707 169.758 182.11 169.275 183.248 168.385C184.387 167.496 185.196 166.252 185.547 164.85Z" fill="white"/>
<path d="M185.547 164.85L201.861 123.052C202.063 122.242 202.078 121.396 201.904 120.58C201.73 119.763 201.371 118.997 200.857 118.34C200.342 117.683 199.684 117.152 198.933 116.787C198.182 116.423 197.357 116.234 196.523 116.236H131.736C130.284 116.239 128.876 116.731 127.737 117.631C126.597 118.532 125.794 119.789 125.455 121.201L107.573 162.989C107.38 163.795 107.371 164.635 107.548 165.446C107.726 166.256 108.085 167.016 108.599 167.668C109.112 168.319 109.767 168.846 110.514 169.209C111.26 169.57 112.079 169.759 112.909 169.759H179.262C180.707 169.758 182.11 169.275 183.248 168.385C184.387 167.496 185.196 166.252 185.547 164.85Z" fill="#00A62F"/>
<path d="M185.547 164.85L201.861 123.052C202.063 122.242 202.078 121.396 201.904 120.58C201.73 119.763 201.371 118.997 200.857 118.34C200.342 117.683 199.684 117.152 198.933 116.787C198.182 116.423 197.357 116.234 196.523 116.236H131.736C130.284 116.239 128.876 116.731 127.737 117.631C126.597 118.532 125.794 119.789 125.455 121.201L107.573 162.989C107.38 163.795 107.371 164.635 107.548 165.446C107.726 166.256 108.085 167.016 108.599 167.668C109.112 168.319 109.767 168.846 110.514 169.209C111.26 169.57 112.079 169.759 112.909 169.759H179.262C180.707 169.758 182.11 169.275 183.248 168.385C184.387 167.496 185.196 166.252 185.547 164.85Z" stroke="#404040" stroke-width="1.40402" stroke-linecap="square" stroke-linejoin="round"/>
<path d="M183.159 163.158L198.211 124.598C198.398 123.851 198.412 123.072 198.252 122.32C198.092 121.567 197.763 120.861 197.29 120.255C196.816 119.649 196.211 119.158 195.519 118.821C194.828 118.484 194.068 118.309 193.299 118.309H133.515C132.173 118.309 130.87 118.76 129.816 119.591C128.762 120.422 128.019 121.583 127.705 122.889L111.242 161.442C111.064 162.186 111.058 162.96 111.222 163.707C111.387 164.454 111.718 165.154 112.192 165.754C112.666 166.355 113.269 166.84 113.957 167.174C114.645 167.508 115.4 167.681 116.164 167.682H177.363C178.695 167.683 179.99 167.238 181.04 166.419C182.09 165.599 182.836 164.451 183.159 163.158Z" fill="#00A62F"/>
<path d="M137.828 125.416C138.622 124.227 139.908 123.683 140.726 124.234C141.544 124.785 141.544 126.172 140.754 127.354C140.629 127.536 140.49 127.708 140.338 127.867L146.21 140.267C147.146 139.643 148.176 139.487 148.918 139.98C149.156 140.153 149.353 140.377 149.495 140.634C149.638 140.891 149.722 141.177 149.743 141.47L153.757 140.118L157.266 138.936L158.41 138.562C158.555 138.131 158.755 137.721 159.006 137.342C160.119 135.667 161.939 134.915 163.073 135.678C164.206 136.44 164.22 138.364 163.138 140.025L169.829 149.16C171.289 147.964 173.005 147.593 174.194 148.383C175.813 149.461 175.837 152.273 174.249 154.658C174.183 154.755 174.111 154.831 174.045 154.921L178.496 161.009L178.538 161.068C178.765 161.411 178.847 161.831 178.765 162.235C178.683 162.639 178.444 162.993 178.101 163.221C177.758 163.448 177.338 163.53 176.934 163.448C176.53 163.366 176.176 163.127 175.948 162.784L171.996 156.818C170.744 157.542 169.413 157.681 168.439 157.033C166.893 155.993 166.817 153.399 168.196 151.087L161.793 141.422C160.847 142.063 159.803 142.226 159.055 141.73C158.639 141.435 158.355 140.988 158.264 140.486L157.786 140.618L154.219 141.592L149.649 142.826C149.507 143.373 149.273 143.893 148.956 144.362C147.843 146.033 146.023 146.788 144.89 146.026C143.756 145.263 143.739 143.304 144.851 141.63C145.015 141.384 145.198 141.152 145.399 140.937L139.807 128.304C139.135 128.765 138.39 128.883 137.856 128.526C137.051 127.992 137.037 126.591 137.828 125.416Z" fill="#E5E5E5"/>
<path d="M180.368 126.082H189.034C189.431 126.081 189.818 125.966 190.15 125.749C190.482 125.532 190.743 125.224 190.903 124.862C190.951 124.752 190.977 124.634 190.979 124.515C190.979 124.279 190.884 124.052 190.716 123.885C190.549 123.718 190.322 123.624 190.085 123.624H180.874C181.307 124.349 181.089 125.364 180.368 126.082Z" fill="#E5E5E5"/>
<path d="M174.765 125.194C174.766 125.43 174.86 125.656 175.028 125.822C175.194 125.988 175.42 126.082 175.656 126.082H180.367C181.088 125.364 181.307 124.348 180.874 123.617H176.713C176.318 123.617 175.93 123.732 175.599 123.948C175.267 124.164 175.005 124.471 174.845 124.834C174.794 124.947 174.767 125.07 174.765 125.194Z" fill="#00A62F"/>
<path d="M176.932 126.082C176.958 126.129 176.986 126.174 177.019 126.217C177.636 127.063 178.978 127.143 180.018 126.383C180.141 126.292 180.257 126.191 180.364 126.082C181.085 125.364 181.304 124.348 180.87 123.617C180.848 123.569 180.82 123.524 180.787 123.482C180.174 122.632 178.832 122.56 177.792 123.312C177.669 123.405 177.553 123.507 177.445 123.617C176.724 124.338 176.506 125.347 176.932 126.082Z" fill="white"/>
<path d="M172.603 130.633C172.605 130.869 172.7 131.095 172.867 131.261C173.035 131.427 173.262 131.521 173.498 131.521H182.591C182.151 130.786 182.369 129.787 183.09 129.056H174.538C174.141 129.056 173.753 129.172 173.42 129.388C173.088 129.605 172.826 129.913 172.666 130.276C172.622 130.39 172.601 130.511 172.603 130.633Z" fill="#00A62F"/>
<path d="M182.577 131.521H186.855C187.25 131.521 187.637 131.407 187.969 131.191C188.301 130.976 188.563 130.669 188.724 130.308C188.772 130.199 188.799 130.081 188.803 129.961C188.804 129.844 188.781 129.728 188.736 129.62C188.692 129.512 188.626 129.413 188.543 129.33C188.46 129.247 188.362 129.182 188.254 129.137C188.145 129.093 188.029 129.07 187.912 129.07H183.076C182.355 129.778 182.137 130.786 182.577 131.521Z" fill="#E5E5E5"/>
<path d="M182.577 131.521C182.597 131.569 182.622 131.615 182.653 131.657C183.267 132.506 184.608 132.582 185.648 131.826C185.771 131.734 185.887 131.631 185.995 131.521C186.709 130.8 186.928 129.788 186.501 129.057C186.476 129.01 186.448 128.965 186.418 128.921C185.797 128.075 184.456 127.999 183.416 128.758C183.292 128.849 183.177 128.948 183.069 129.057C182.355 129.778 182.137 130.786 182.577 131.521Z" fill="white"/>
<path d="M179.537 136.922H184.98C185.376 136.921 185.764 136.806 186.096 136.59C186.428 136.375 186.691 136.067 186.852 135.705C186.899 135.596 186.925 135.478 186.928 135.359C186.928 135.121 186.834 134.893 186.666 134.725C186.499 134.557 186.271 134.461 186.034 134.461H180.054C180.484 135.192 180.262 136.201 179.537 136.922Z" fill="#00A62F"/>
<path d="M170.724 136.038C170.724 136.155 170.748 136.27 170.793 136.377C170.838 136.485 170.903 136.583 170.986 136.665C171.069 136.747 171.167 136.812 171.275 136.856C171.383 136.9 171.498 136.923 171.615 136.922H179.536C180.25 136.201 180.472 135.189 180.042 134.454H172.672C172.275 134.453 171.887 134.569 171.555 134.786C171.223 135.004 170.961 135.313 170.803 135.677C170.752 135.791 170.725 135.914 170.724 136.038Z" fill="#E5E5E5"/>
<path d="M176.111 136.922C176.136 136.97 176.165 137.015 176.198 137.057C176.811 137.907 178.149 137.98 179.193 137.224C179.316 137.132 179.432 137.032 179.539 136.922C180.254 136.201 180.475 135.189 180.046 134.454C180.023 134.406 179.995 134.361 179.962 134.319C179.342 133.476 178.004 133.404 176.96 134.156C176.838 134.247 176.722 134.346 176.614 134.454C175.899 135.175 175.678 136.191 176.111 136.922Z" fill="white"/>
<path d="M144.354 162.395H149.8C150.196 162.395 150.583 162.279 150.914 162.064C151.246 161.848 151.508 161.54 151.669 161.179C151.716 161.069 151.742 160.951 151.745 160.832C151.745 160.595 151.651 160.367 151.483 160.2C151.315 160.032 151.088 159.938 150.851 159.938H144.871C145.29 160.666 145.068 161.674 144.354 162.395Z" fill="#00A62F"/>
<path d="M122.742 161.511C122.743 161.628 122.766 161.743 122.811 161.851C122.856 161.958 122.922 162.056 123.005 162.138C123.087 162.22 123.185 162.285 123.293 162.329C123.401 162.373 123.517 162.396 123.633 162.395H144.354C145.068 161.674 145.29 160.662 144.86 159.931H124.69C124.294 159.93 123.906 160.045 123.574 160.262C123.242 160.479 122.981 160.788 122.822 161.151C122.772 161.265 122.745 161.387 122.742 161.511Z" fill="#E5E5E5"/>
<path d="M140.918 162.395C140.943 162.442 140.972 162.488 141.004 162.53C141.618 163.38 142.956 163.453 144 162.7C144.122 162.607 144.238 162.505 144.346 162.395C145.06 161.674 145.282 160.662 144.852 159.93C144.83 159.882 144.802 159.837 144.769 159.795C144.149 158.949 142.811 158.877 141.767 159.629C141.644 159.72 141.527 159.821 141.42 159.93C140.71 160.648 140.484 161.664 140.918 162.395Z" fill="white"/>
<path d="M7.30302 175.746C7.30302 175.746 -4.13716 227.425 25.2919 238.22C54.7209 249.016 134.216 238.875 101.178 201.587C68.1406 164.299 7.30302 175.746 7.30302 175.746Z" fill="#404040"/>
<path d="M150.097 60.9357C154.097 60.1012 158.152 59.5604 162.23 59.3167C162.317 59.3167 162.39 59.3167 162.466 59.3167C165.146 59.1399 169.84 59.0636 172.519 59.0359" stroke="#404040" stroke-width="1.40402" stroke-miterlimit="10"/>
<path d="M130.271 69.4875C130.243 69.5049 130.226 69.5257 130.198 69.543" stroke="#404040" stroke-width="1.40402" stroke-miterlimit="10"/>
<path d="M175.88 47.7618C173.834 48.8365 171.484 48.1085 170.583 46.2781" stroke="#404040" stroke-width="1.40402" stroke-miterlimit="10"/>
<path d="M164.005 21.64C163.913 23.2305 164.321 24.81 165.172 26.1565C166.024 27.5033 167.275 28.5495 168.751 29.1489C169.064 28.5759 169.511 28.0881 170.055 27.7276C172.353 26.2404 171.944 30.2132 178.184 29.1663C186.834 27.7068 189.039 30.7194 189.039 30.7194C189.229 30.9828 188.692 32.7023 188.616 33.0178C188.269 34.8656 187.922 36.7029 187.607 38.5645C187.403 39.6923 187.198 40.8131 186.99 41.9273C187.147 41.7747 187.314 41.6322 187.489 41.5009C188.91 39.2822 190.994 36.7931 193.265 38.8246C193.72 39.2475 194.07 39.7727 194.284 40.3568C195.324 43.1822 193.334 44.9988 191.008 46.0873C190.394 46.4586 189.742 46.762 189.063 46.9921C189.177 47.7063 189.652 50.5525 189.652 50.5594C189.701 50.8506 195.476 47.2903 195.958 46.8569C196.829 45.7056 197.5 44.4167 197.945 43.0436C199.74 37.3789 199.435 30.0572 195.82 25.3979C194.922 24.2435 195.521 23.5779 195.781 22.4547C195.794 22.394 195.788 22.3313 195.764 22.2744C195.741 22.2172 195.701 22.1687 195.649 22.1347C195.598 22.1007 195.537 22.0831 195.475 22.0837C195.414 22.0848 195.354 22.1039 195.303 22.1392C193.355 23.363 189.829 22.1115 189.829 22.1115C178.389 15.2403 172.527 19.4906 169.722 19.7056C168.585 19.7836 167.456 19.4622 166.529 18.7973C166.366 19.119 166.119 19.3901 165.814 19.5818C165.508 19.7735 165.156 19.8786 164.796 19.8858L164.685 20.4821C164.6 20.9352 164.36 21.3446 164.005 21.64Z" fill="#00A62F"/>
<path d="M168.759 29.1632C167.282 28.5642 166.031 27.5179 165.18 26.1711C164.328 24.8243 163.92 23.2448 164.013 21.6543C164.047 21.0435 164.135 20.4368 164.276 19.8412L164.377 19.862C164.513 19.8928 164.653 19.9032 164.793 19.8932C165.153 19.8863 165.505 19.7812 165.81 19.5895C166.116 19.3978 166.363 19.1264 166.526 18.8046C166.622 18.6258 166.689 18.4327 166.724 18.2326L167.258 15.3311C167.258 15.3311 168.991 17.678 171.764 17.4596C174.538 17.2411 180.4 12.991 191.871 19.8655C191.871 19.8655 194.624 20.8812 196.572 19.6575C196.623 19.6224 196.683 19.603 196.745 19.6023C196.806 19.6016 196.867 19.6193 196.918 19.6533C196.97 19.6873 197.01 19.7358 197.033 19.7927C197.057 19.8499 197.063 19.9126 197.051 19.9729C196.791 21.0927 196.964 21.9975 197.862 23.1519C201.478 27.8112 201.783 35.1329 199.987 40.7975C199.201 43.1452 197.804 45.2412 195.941 46.8712C195.46 47.3046 189.684 50.8649 189.635 50.5737C189.635 50.5737 189.16 47.7206 189.046 47.0064L189.018 46.8435L189.181 46.795C189.799 46.6039 190.403 46.3724 190.991 46.1016C193.317 45.0131 195.317 43.1965 194.267 40.3711C194.053 39.7873 193.704 39.2621 193.248 38.8388C190.977 36.8073 188.894 39.2964 187.472 41.5151C187.197 41.9363 186.972 42.3877 186.8 42.8602C186.855 42.5552 186.911 42.257 186.97 41.9519C187.178 40.8357 187.383 39.7149 187.587 38.5892C187.933 36.738 188.256 34.9006 188.595 33.0425C188.658 32.727 189.209 31.0075 189.018 30.744C189.018 30.744 186.814 27.7314 178.164 29.1909C171.924 30.231 172.333 26.265 170.035 27.7523C169.491 28.1128 169.043 28.6009 168.731 29.1736C168.634 29.3605 168.549 29.5525 168.475 29.7491C168.462 29.7737 168.452 29.7993 168.443 29.8253C168.287 30.2552 168.145 30.6886 168.007 31.1115C166.71 35.2334 165.854 39.6847 166.311 44.0146C166.869 49.2633 170.693 55.434 176.777 54.9106C178.692 54.6863 180.559 54.1621 182.31 53.3575" stroke="#404040" stroke-width="1.40402" stroke-miterlimit="10"/>
<path d="M169.422 40.3492C170.018 40.3322 170.483 39.7353 170.463 39.0156C170.443 38.2959 169.944 37.7263 169.349 37.7433C168.754 37.7599 168.287 38.3569 168.308 39.0766C168.328 39.7963 168.827 40.3659 169.422 40.3492Z" fill="#404040"/>
<path d="M177.568 42.5379C178.164 42.521 178.629 41.924 178.609 41.2046C178.589 40.485 178.09 39.915 177.495 39.932C176.9 39.949 176.433 40.546 176.454 41.2653C176.474 41.985 176.973 42.5549 177.568 42.5379Z" fill="#404040"/>
<path d="M174.051 43.0191C174.051 43.0191 170.9 43.7125 171.219 42.097C171.316 41.5908 172.106 36.6196 172.106 36.6196C172.106 36.6196 170.637 33.659 166.792 34.3489" stroke="#404040" stroke-width="1.40402" stroke-miterlimit="10"/>
<path d="M175.467 36.1761C175.467 36.1761 180.463 35.3267 182.376 39.3169" stroke="#404040" stroke-width="1.40402" stroke-miterlimit="10"/>
<path d="M172.574 58.9939C168.64 61.0739 166.539 66.0799 168.186 69.7026C170.931 75.7382 178.159 77.5131 184.132 75.7694C190.775 73.828 195.656 67.7058 195.365 60.6857" stroke="#404040" stroke-width="1.40402" stroke-miterlimit="10"/>
<path d="M196.398 174.086C207.807 147.573 211.949 100.775 211.949 100.775V166.068C211.949 167.121 212.156 168.164 212.559 169.137C212.962 170.11 213.552 170.994 214.297 171.738C215.042 172.483 215.926 173.074 216.899 173.477C217.872 173.88 218.915 174.086 219.968 174.086H245.275C246.224 174.101 247.145 173.765 247.86 173.142C248.577 172.52 249.037 171.655 249.154 170.713C249.205 170.194 249.147 169.671 248.983 169.176C248.819 168.681 248.553 168.226 248.203 167.841C247.853 167.455 247.425 167.147 246.948 166.936C246.471 166.726 245.956 166.618 245.434 166.619H235.069C234.656 166.617 234.248 166.522 233.877 166.339C233.507 166.156 233.182 165.892 232.93 165.565C232.677 165.237 232.502 164.857 232.419 164.452C232.335 164.047 232.345 163.629 232.448 163.228C238.688 138.615 242.547 109.723 234.424 84.1559C232.746 78.8795 229.13 74.1787 224.859 70.5455C219.958 66.3577 213.915 64.4372 207.723 63.0158C203.64 62.0798 199.52 61.3053 195.365 60.6931C195.352 60.6973 195.339 60.6973 195.326 60.6931C195.299 60.6931 195.271 60.6931 195.254 60.6931H195.226H195.188H195.132" stroke="#404040" stroke-width="1.40402" stroke-miterlimit="10"/>
<path d="M192.751 48.9126L192.293 57.1946C192.25 58.0041 192.504 58.8014 193.008 59.4362C193.512 60.0709 194.231 60.4994 195.029 60.6405H195.133C195.151 60.6357 195.17 60.6357 195.188 60.6405H195.205H195.254" stroke="#404040" stroke-width="1.40402" stroke-miterlimit="10"/>
<path d="M195.327 60.6786H195.254H195.226H195.205H195.188H195.133H195.029C194.231 60.5375 193.512 60.109 193.008 59.4743C192.504 58.8392 192.25 58.0418 192.293 57.2327L192.751 48.9507" stroke="#404040" stroke-width="1.40402" stroke-miterlimit="10"/>
<path d="M173.229 54.3937C173.004 54.3036 173.229 63.6429 167.658 67.699" stroke="#404040" stroke-width="1.40402" stroke-miterlimit="10"/>
<path d="M98.6441 174.089H80.7974" stroke="#404040" stroke-width="1.40402" stroke-miterlimit="10"/>
<path d="M272.995 174.089H126.429" stroke="#404040" stroke-width="1.40402" stroke-miterlimit="10"/>
<path d="M47.0204 86.4058C47.1923 89.9024 47.0672 93.4072 46.646 96.8823C46.1052 100.966 42.3299 106.156 41.5118 110.194C40.3435 116.005 42.1115 122.009 44.5382 127.403C47.4711 133.924 52.0922 140.483 51.6415 147.951C51.4107 151.203 50.4427 154.36 48.8117 157.183C47.1802 160.005 44.9282 162.42 42.2259 164.244C38.5242 166.72 34.2961 168.3 29.8775 168.855C29.2604 168.928 28.6329 168.987 28.0054 169.004C27.6588 169.004 27.3121 168.966 26.9654 168.938C15.2131 167.943 3.15933 158.978 3.18706 146.498C3.18706 138.525 9.24689 132.284 10.2696 124.547C10.897 119.815 9.51036 114.899 10.793 110.305C12.8731 102.97 20.9125 98.9692 24.4347 92.2161C27.0278 87.2309 27.4507 81.4137 29.503 76.1859C32.3596 68.9058 36.9218 60.5857 43.1619 59.8923C44.9726 60.0976 46.723 60.6685 48.3065 61.5702C52.1754 63.6503 53.16 63.782 53.9469 65.6367C54.7512 67.5746 53.5517 69.6442 51.5479 70.2648C48.1644 71.336 46.7049 78.2105 47.0204 86.4058Z" fill="#00A62F"/>
<path d="M50.4219 62.6966C60.5794 59.7534 67.0344 64.0833 71.6521 69.0754C76.2698 74.0675 76.0548 79.7356 76.0548 79.7356" stroke="#404040" stroke-width="1.40402" stroke-miterlimit="10"/>
<path d="M81.9264 160.333C81.7732 168.268 80.7679 176.164 78.9277 183.885" stroke="#404040" stroke-width="1.40402" stroke-miterlimit="10"/>
<path d="M107.168 224.96C103.448 231.359 94.6257 235.904 83.8303 238.733C64.6732 243.753 39.3107 243.361 25.2982 238.216C-4.14809 227.424 7.29903 175.746 7.29903 175.746C7.29903 175.746 58.2286 166.161 92.1886 193.08C95.4331 195.644 98.4446 198.49 101.188 201.584C104.943 205.83 107.248 209.716 108.337 213.266C109.671 217.69 109.137 221.587 107.168 224.96Z" stroke="#404040" stroke-width="1.40402" stroke-miterlimit="10"/>
<path d="M87.6467 237.859C87.6467 237.859 69.8035 287.388 99.7802 300.038C129.757 312.688 -10.3021 314.373 20.6142 300.038C51.5304 285.703 33.76 240.886 33.76 240.886" stroke="#404040" stroke-width="1.40402" stroke-miterlimit="10"/>
<path d="M123.944 69.5429C123.573 68.4093 123.725 64.4676 123.847 62.242C123.87 61.8218 124.056 61.427 124.365 61.1417C124.674 60.8563 125.083 60.7024 125.504 60.7132L161.117 61.0252C161.718 61.0307 162.292 61.273 162.714 61.6995C163.137 62.1262 163.374 62.7024 163.374 63.3028V90.0278C163.374 90.3277 163.315 90.6247 163.2 90.9017C163.085 91.1787 162.916 91.4304 162.703 91.6419C162.491 91.8537 162.238 92.0211 161.961 92.1348C161.683 92.2489 161.386 92.3068 161.086 92.3054L126.381 92.1771C125.878 92.1563 125.403 91.9421 125.054 91.5791C124.706 91.2158 124.512 90.7319 124.512 90.2288V88.1904C126.981 89.3414 131.647 89.695 131.647 89.695C133.307 89.6499 135.932 89.4488 137.37 88.6238C138.688 87.868 140.352 86.7829 140.577 85.1397C140.664 84.5043 140.496 83.8601 140.109 83.3481C139.723 82.8361 139.149 82.4981 138.514 82.4079C138.133 82.3317 137.738 82.3594 137.37 82.4877" stroke="#404040" stroke-width="1.40402" stroke-miterlimit="10"/>
<path d="M158.702 143.603C158.685 144.079 158.525 144.54 158.241 144.923C157.426 145.925 155.814 145.728 154.718 145.419C150.111 144.109 147.345 149.101 145.604 152.463C141.209 160.964 134.615 168.861 126.388 174.089C125.855 174.436 125.31 174.761 124.759 175.08C116.72 179.719 106.302 178.856 98.5264 174.04L108.469 149.617L109.453 150.404C115.458 155.143 122.849 152.484 127.966 147.808C129.386 146.514 130.639 145.047 131.696 143.443C133.457 140.736 134.965 137.813 137.374 135.612C140.709 132.564 145.591 131.968 149.806 133.258C154.022 134.547 159.083 138.694 158.702 143.603Z" fill="white"/>
<path d="M158.659 141.873C158.659 141.873 157.529 135.89 147.34 140.559" stroke="#404040" stroke-width="1.40402" stroke-miterlimit="10"/>
<path d="M152.991 134.69C152.991 134.69 146.64 132.658 143.104 137.512" stroke="#404040" stroke-width="1.40402" stroke-miterlimit="10"/>
<path d="M24.7887 168.948C26.4846 169.099 28.1912 169.071 29.8813 168.865C34.2989 168.302 38.5252 166.72 42.2263 164.243C44.9286 162.419 47.1809 160.005 48.812 157.182C50.4435 154.359 51.411 151.202 51.6419 147.95C52.0926 140.479 47.4818 133.92 44.5386 127.399C42.1119 122.001 40.3438 115.997 41.5156 110.194C42.3303 106.152 46.0986 100.965 46.6429 96.8781C47.0662 93.403 47.1937 89.8982 47.0242 86.4016C46.7087 78.2028 48.1648 71.3214 51.5483 70.2745C53.5521 69.6539 54.755 67.5808 53.9473 65.6464C53.1742 63.7882 52.1792 63.6773 48.3069 61.573C38.2118 56.0817 31.1917 66.3189 27.3159 76.1887C25.2601 81.42 24.8441 87.2302 22.2476 92.2153C18.7254 98.972 10.6687 102.962 8.6095 110.312C7.32335 114.902 8.71004 119.821 8.08603 124.546C7.06681 132.28 1.01738 138.517 1.00005 146.497C0.972314 158.974 13.04 167.946 24.7887 168.948Z" stroke="#404040" stroke-width="1.40402" stroke-miterlimit="10"/>
<path d="M107.169 224.959C106.299 231.151 105.002 238.254 103.574 245.365C99.5246 265.517 94.373 285.79 94.373 285.79" stroke="#404040" stroke-width="1.40402" stroke-miterlimit="10"/>
<path d="M108.324 213.266C108.341 212.51 108.351 211.817 108.324 211.158C108.015 196.945 97.7953 193.547 93.3995 192.733C92.7436 192.605 92.0801 192.52 91.4131 192.48" stroke="#404040" stroke-width="1.40402" stroke-miterlimit="10"/>
<path d="M95.8984 279.644C96.4642 279.297 97.1121 279.108 97.7756 279.095C98.4388 279.082 99.0933 279.247 99.6719 279.572C100.251 279.896 100.732 280.369 101.067 280.942C101.402 281.515 101.578 282.166 101.577 282.83C101.577 282.878 101.577 282.937 101.577 283.006C101.522 284.718 101.071 286.394 100.259 287.903C99.448 289.411 98.2984 290.711 96.9003 291.701L92.0815 295.129" stroke="#404040" stroke-width="1.40402" stroke-miterlimit="10"/>
<path d="M41.1587 114.777C41.8312 114.503 42.5176 114.261 43.211 114.035C44.6705 111.338 44.4451 105.434 44.3065 103.288L45.766 99.9984C49.7943 102.474 55.1261 101.545 60.0731 99.8217C60.7679 99.579 61.4435 99.2847 62.0942 98.9411C65.2351 97.4989 69.6378 94.0877 67.6618 92.3266C65.6858 90.5655 65.8244 87.175 67.0898 85.095C67.4746 84.4571 68.1575 83.8297 68.8682 84.0273C69.3466 84.159 69.6552 84.6062 69.929 85.0187C70.2757 85.5353 70.6224 86.031 70.969 86.5372C71.0904 86.707 71.288 86.8838 71.4752 86.8076C71.5542 86.7556 71.6159 86.6807 71.652 86.5926C72.2621 85.3377 72.1477 83.5385 72.2517 82.1622C72.3731 80.5224 72.4667 78.8722 72.5152 77.2255C72.5429 76.3173 72.7301 75.3431 73.7043 75.0242C73.9008 74.9486 74.1123 74.9184 74.3221 74.9365C74.5321 74.9545 74.7353 75.02 74.9159 75.1282C75.0969 75.2367 75.2504 75.3847 75.3655 75.5612C75.4806 75.738 75.5538 75.9384 75.5798 76.1474C76.2887 80.1317 76.3927 84.1999 75.8883 88.2151C75.4099 92.4202 74.5467 96.8819 71.8496 100.272C70.3128 102.228 68.2539 103.709 65.9111 104.543C63.6439 105.33 63.7167 108.066 63.7167 110.464V114.448C70.6882 115.862 77.2369 117.568 82.6519 122.421C86.233 125.695 89.6027 129.193 92.7401 132.894C102.617 144.483 104.752 146.657 109.509 150.405C115.513 155.144 122.907 152.485 128.021 147.808C129.438 146.514 130.689 145.047 131.744 143.443C133.505 140.736 135.013 137.813 137.419 135.612C140.758 132.565 145.639 131.969 149.854 133.258C154.07 134.548 159.138 138.694 158.736 143.603C158.719 144.079 158.56 144.539 158.278 144.924C157.464 145.926 155.852 145.728 154.756 145.419C150.146 144.109 147.383 149.101 145.639 152.464C141.246 160.964 134.649 168.861 126.423 174.089C125.889 174.436 125.348 174.762 124.793 175.081C115.603 180.385 103.282 178.492 95.3782 171.735L76.3113 155.549" stroke="#404040" stroke-width="1.40402" stroke-miterlimit="10"/>
<path d="M43.2119 114.035C43.2119 114.035 52.319 111.22 63.7176 114.457" stroke="#404040" stroke-width="1.40402" stroke-miterlimit="10"/>
<path d="M124.513 88.1907C124.513 88.1907 124.583 99.9775 127.394 104.515" stroke="#404040" stroke-width="1.40402" stroke-miterlimit="10"/>
<path d="M133.751 34.2415C131.588 37.9336 131.689 40.5544 132.25 44.8081C132.297 45.1703 132.24 45.5382 132.086 45.8696C131.932 46.201 131.688 46.4822 131.382 46.6808C131.075 46.8794 130.719 46.9873 130.353 46.9921C129.988 46.9966 129.629 46.8982 129.317 46.7078C116.837 39.5248 105.158 45.2067 90.2579 41.688C84.7874 40.4019 77.9684 37.7429 73.2918 33.4615C71.7404 31.1572 70.9122 28.4424 70.9136 25.6648C70.9136 14.02 86.8224 4.57666 106.437 4.57666C119.011 4.57666 130.056 8.45592 136.372 14.3008C136.372 14.3008 136.372 14.3008 136.39 14.3216C137.974 16.6 138.839 19.3017 138.872 22.0768C138.872 26.268 135.766 30.7748 133.751 34.2415Z" fill="#E5E5E5"/>
<path d="M138.816 22.0838V22.3785C138.744 26.4588 136.702 30.2514 134.278 33.5344C132.656 35.7323 130.732 38.1694 131.19 40.863C131.391 42.0487 132.053 43.1268 132.23 44.3298C132.406 45.5327 131.762 47.0061 130.559 47.0685C129.796 47.1066 129.144 46.5623 128.541 46.0943C124.96 43.321 120.307 42.2809 115.783 42.1007C111.259 41.9204 106.742 42.5132 102.215 42.6415C95.6903 42.8287 89.0619 42.014 83.0333 39.5214C77.6148 37.2611 72.6747 33.5864 69.4229 28.6949C66.2301 23.8726 68.1194 16.8767 71.5238 12.6855C74.7201 8.75419 79.3447 6.23735 84.0906 4.46586C96.8516 -0.300884 111.419 -0.186483 124.006 5.03093C127.744 6.56323 131.349 8.58779 134.157 11.5068C136.896 14.353 138.792 18.1456 138.816 22.0838Z" stroke="#404040" stroke-width="1.40402" stroke-miterlimit="10"/>
<path d="M86.4483 26.7226C89.1555 26.7226 91.3503 24.5282 91.3503 21.8206C91.3503 19.1135 89.1555 16.9187 86.4483 16.9187C83.7412 16.9187 81.5464 19.1135 81.5464 21.8206C81.5464 24.5282 83.7412 26.7226 86.4483 26.7226Z" fill="white"/>
<path d="M102.298 26.7226C105.005 26.7226 107.2 24.5282 107.2 21.8206C107.2 19.1135 105.005 16.9187 102.298 16.9187C99.5904 16.9187 97.396 19.1135 97.396 21.8206C97.396 24.5282 99.5904 26.7226 102.298 26.7226Z" fill="white"/>
<path d="M118.457 26.7226C121.164 26.7226 123.359 24.5282 123.359 21.8206C123.359 19.1135 121.164 16.9187 118.457 16.9187C115.749 16.9187 113.555 19.1135 113.555 21.8206C113.555 24.5282 115.749 26.7226 118.457 26.7226Z" fill="white"/>
<g opacity="0.54">
<path opacity="0.54" d="M212.65 227.338L210.657 256.112C209.746 257.849 208.606 259.456 207.27 260.892C207.124 260.84 206.979 260.785 206.837 260.719C206.57 260.629 206.306 260.521 206.057 260.417C202.018 258.646 198.95 255.346 198.055 251.605C197.248 248.329 197.976 244.789 196.416 241.711C194.512 237.918 189.337 235.54 188.702 231.262C188.106 227.258 191.711 223.587 191.129 219.663C190.436 215.225 185.01 212.594 183.994 208.261C183.36 205.567 183.929 202.475 183.689 199.701C183.426 196.599 182.905 193.524 182.133 190.507C190.165 189.925 198.34 194.352 200.943 200.693C203.068 205.893 201.789 211.949 205.103 216.678C206.913 219.24 209.926 221.157 211.486 223.837C211.967 224.673 212.318 225.578 212.526 226.52C212.526 226.586 212.526 226.652 212.55 226.704C212.55 226.811 212.578 226.887 212.591 226.967C212.626 227.206 212.65 227.338 212.65 227.338Z" fill="#00A62F"/>
<path opacity="0.54" d="M212.665 227.314C212.665 227.314 212.641 227.196 212.613 226.967C212.637 227.058 212.654 227.151 212.665 227.245C212.67 227.255 212.672 227.267 212.672 227.279C212.672 227.291 212.67 227.303 212.665 227.314Z" fill="#00A62F"/>
</g>
<path d="M239.202 216.085C238.162 219.823 232.466 222.093 231.78 225.924C231.173 229.321 234.924 232.49 234.304 235.939C233.641 239.638 228.251 241.684 226.271 244.953C224.659 247.608 225.411 250.663 224.579 253.488C223.616 256.698 220.419 259.565 216.204 261.084C215.94 261.177 215.691 261.267 215.424 261.347C215.278 261.389 215.119 261.441 214.973 261.479C213.586 260.331 211.974 258.31 210.667 256.13L212.65 227.338C214.197 226.028 215.965 224.829 217.195 223.373C218.53 221.802 219.151 220.086 219.546 218.287H219.587V218.089C220.166 215.25 220.218 212.276 221.553 209.582C224.26 204.101 232.757 200.281 241.119 200.783C240.33 203.372 239.79 206.031 239.507 208.722C239.268 211.104 239.857 213.773 239.202 216.085Z" fill="#00A62F"/>
<path d="M219.601 218.064V218.262H219.56L219.601 218.064Z" fill="#00A62F"/>
<path d="M219.602 218.065L219.56 218.262C219.165 220.062 218.544 221.778 217.21 223.348C215.979 224.804 214.211 226.004 212.665 227.314C212.671 227.296 212.671 227.277 212.665 227.259C212.654 227.165 212.636 227.072 212.613 226.981C212.613 226.901 212.585 226.825 212.571 226.718C212.571 226.666 212.571 226.6 212.547 226.534C212.339 225.592 211.988 224.687 211.507 223.851C209.947 221.171 206.934 219.254 205.125 216.692C205.125 216.692 205.943 203.189 212.852 199.081C219.404 195.198 219.602 215.818 219.602 218.065Z" fill="#00D83C"/>
<path d="M219.601 218.064V218.262H219.56L219.601 218.064Z" fill="#00A62F"/>
<path d="M212.651 227.258V227.338C212.651 227.338 212.626 227.22 212.599 226.991C212.622 227.079 212.639 227.168 212.651 227.258Z" fill="#00A62F"/>
<path d="M212.033 227.338C213.572 226.027 215.361 224.811 216.595 223.358C220.061 219.271 218.723 214.046 220.945 209.564C223.65 204.09 232.153 200.273 240.512 200.772C239.718 203.36 239.177 206.019 238.896 208.711C238.647 211.11 239.243 213.776 238.588 216.099C237.523 219.836 231.848 222.103 231.158 225.934C230.545 229.328 234.306 232.496 233.686 235.942C233.024 239.645 227.636 241.69 225.653 244.956C224.034 247.615 224.794 250.662 223.955 253.494C222.939 256.909 219.403 259.925 214.795 261.35C214.65 261.398 214.49 261.45 214.341 261.489C212.955 260.341 211.343 258.32 210.032 256.136" stroke="#404040" stroke-width="1.40402" stroke-miterlimit="10"/>
<path d="M235.409 205.061C222.946 218.473 217.084 246.751 214.803 261.353C214.616 262.584 214.456 263.711 214.304 264.726" stroke="#404040" stroke-width="1.40402" stroke-miterlimit="10"/>
<path d="M236.56 272.949L230.844 306.781C230.708 307.707 230.248 308.556 229.546 309.176C228.844 309.796 227.946 310.148 227.009 310.168H197.029C196.084 310.146 195.177 309.788 194.473 309.156C193.768 308.525 193.313 307.663 193.188 306.726L187.901 272.946L236.56 272.949Z" stroke="#404040" stroke-width="1.40402" stroke-miterlimit="10"/>
<path d="M242.006 269.171C241.955 270.174 241.526 271.122 240.806 271.822C240.086 272.523 239.128 272.926 238.123 272.95H186.431C185.438 272.926 184.489 272.531 183.772 271.844C183.055 271.156 182.621 270.225 182.555 269.234C182.337 266.807 184.132 264.727 186.431 264.727H238.123C240.401 264.73 242.19 266.779 242.006 269.171Z" stroke="#404040" stroke-width="1.40402" stroke-miterlimit="10"/>
<path d="M206.656 260.885C208.874 258.684 211.592 253.775 212.795 249.768C213.787 246.464 212.043 243.063 211.641 239.672C211.017 234.365 213.652 228.659 210.875 223.847C209.325 221.164 206.313 219.257 204.503 216.688C201.171 211.956 202.451 205.903 200.322 200.713C197.719 194.366 189.547 189.939 181.519 190.528C182.286 193.545 182.806 196.62 183.075 199.722C183.314 202.495 182.728 205.588 183.373 208.278C184.389 212.611 189.839 215.235 190.508 219.676C191.097 223.601 187.488 227.275 188.081 231.273C188.719 235.557 193.888 237.925 195.798 241.725C197.351 244.807 196.623 248.343 197.427 251.615C198.436 255.706 202.01 259.301 206.656 260.885Z" stroke="#404040" stroke-width="1.40402" stroke-miterlimit="10"/>
<path d="M186.421 195.499C198.385 211.044 204.015 243.801 206.23 260.712C206.417 262.178 206.576 263.523 206.719 264.726" stroke="#404040" stroke-width="1.40402" stroke-miterlimit="10"/>
<path d="M204.497 216.688C204.497 216.688 205.318 203.185 212.224 199.08C219.13 194.976 218.984 217.978 218.984 217.978" stroke="#404040" stroke-width="1.40402" stroke-miterlimit="10"/>
<path d="M212.034 227.338C212.034 227.338 210.623 219.614 213.098 212.019" stroke="#404040" stroke-width="1.40402" stroke-miterlimit="10"/>
</svg>
