<svg width="320" height="250" viewBox="0 0 320 250" fill="none" xmlns="http://www.w3.org/2000/svg">
<path d="M154.399 121.666C154.308 121.853 154.23 122.041 154.141 122.238C147.428 137.151 142.761 155.016 141.673 176.386C123.06 134.706 92.1651 114.528 64.666 104.838C65.1571 90.9098 67.2771 66.6879 75.9335 51.8071C75.9335 51.8071 90.5787 54.937 109.012 68.1414C123.554 78.555 140.471 95.2607 154.399 121.666Z" fill="#00A62F"/>
<path d="M157.143 121.44L156.518 121.311C156.606 121.111 156.684 120.92 156.772 120.729C156.896 120.962 157.02 121.208 157.143 121.44Z" fill="#00A62F"/>
<path d="M157.143 121.44L156.518 121.311C156.606 121.111 156.684 120.92 156.772 120.729C156.896 120.962 157.02 121.208 157.143 121.44Z" fill="#00A62F"/>
<path d="M145.106 217.117C144.929 217.117 144.752 217.117 144.572 217.117C75.1194 217.117 17.588 168.989 7.278 106.143C6.57136 100.778 6.47949 97.5768 6.47949 97.5768C6.47949 97.5768 31.5335 95.2544 60.5978 105.707C86.3657 114.98 115.285 134.286 132.715 174.183V174.212C132.821 174.448 132.927 174.687 133.018 174.936C138.23 187.003 142.374 200.947 145.084 217.039C145.095 217.055 145.106 217.088 145.106 217.117Z" fill="#00A62F"/>
<path d="M306.776 99.4985C300.137 170.701 236.962 226.6 159.92 226.884C159.966 223.654 161.072 187.103 185.201 153.97C195.992 139.02 210.485 126.604 227.504 117.729C227.988 117.477 228.458 117.235 228.949 116.989C229.543 116.666 230.147 116.388 230.751 116.091C230.907 116.007 231.076 115.933 231.246 115.849C231.836 115.565 232.429 115.277 233.034 115.003C233.348 114.854 233.662 114.709 233.984 114.57C234.634 114.247 235.295 113.966 235.955 113.682C236.616 113.397 237.199 113.142 237.825 112.877C237.902 112.848 237.969 112.816 238.047 112.784C238.517 112.583 238.987 112.393 239.46 112.202C240.051 111.95 240.644 111.714 241.248 111.485C243.015 110.787 244.82 110.119 246.668 109.486L247.304 109.263C248.089 108.988 248.869 108.727 249.664 108.472C265.681 103.281 284.548 100.006 306.776 99.4985Z" fill="#00A62F"/>
<path d="M201.931 66.4722C186.198 77.367 168.468 94.5411 156.773 120.737C142.873 93.8079 125.988 76.7727 111.47 66.1492C120.045 51.5333 139.471 21.8461 157.144 7.95703C157.144 7.95057 183.88 32.1112 201.931 66.4722Z" fill="#00A62F"/>
<path d="M248.114 105.696C247.333 105.945 246.567 106.204 245.796 106.472L245.171 106.691C243.358 107.311 241.581 107.967 239.871 108.649C239.277 108.878 238.698 109.107 238.104 109.356C237.635 109.543 237.172 109.728 236.712 109.925L236.49 110.018C235.875 110.277 235.26 110.538 234.66 110.806C234.059 111.074 233.363 111.378 232.727 111.678C232.409 111.811 232.101 111.956 231.794 112.102C231.201 112.373 230.618 112.651 230.027 112.932C229.861 113.016 229.695 113.087 229.543 113.171C228.95 113.461 228.356 113.752 227.777 114.053C227.293 114.288 226.83 114.527 226.364 114.776C209.669 123.48 195.453 135.659 184.869 150.326C161.197 182.826 160.115 218.673 160.073 221.848L160.017 221.754C157.19 204.929 152.848 190.352 147.403 177.736L147.83 176.444L147.085 176.973C147.085 176.973 147.085 176.973 147.085 176.951C148.145 155.574 152.738 137.703 159.292 122.783L159.907 122.909C159.787 122.68 159.667 122.441 159.554 122.215C171.005 96.5296 188.395 79.6851 203.814 68.9969C222.004 56.3998 237.518 52.3364 237.518 52.3364C245.828 61.6873 247.718 90.2892 248.114 105.696Z" fill="#00A62F"/>
<path d="M143.346 180.108V180.072C143.346 180.072 143.346 180.098 143.346 180.108Z" stroke="#E5E5E5" stroke-width="1.70302" stroke-miterlimit="10"/>
<path d="M156.769 121.056C156.674 121.256 156.593 121.456 156.497 121.669C149.431 137.758 144.484 157.032 143.332 180.084C123.681 135.129 91.0761 113.352 62.0259 102.9C62.5453 87.8736 64.7853 61.7459 73.9222 45.6895C73.9222 45.6895 89.3836 49.0648 108.848 63.3092C124.2 74.5465 142.068 92.5668 156.769 121.056Z" stroke="#E5E5E5" stroke-width="1.70302" stroke-miterlimit="10"/>
<path d="M157.175 121.805L156.511 121.669C156.607 121.456 156.688 121.255 156.783 121.055C156.9 121.301 157.031 121.562 157.175 121.805Z" stroke="#E5E5E5" stroke-width="1.70302" stroke-miterlimit="10"/>
<path d="M143.346 180.108V180.072C143.346 180.072 143.346 180.098 143.346 180.108Z" stroke="#E5E5E5" stroke-width="1.70302" stroke-miterlimit="10"/>
<path d="M157.175 121.805L156.511 121.669C156.607 121.456 156.688 121.255 156.783 121.055C156.9 121.301 157.031 121.562 157.175 121.805Z" stroke="#E5E5E5" stroke-width="1.70302" stroke-miterlimit="10"/>
<path opacity="0.9" d="M36.9925 175.391C35.7099 173.96 34.4485 172.484 33.2366 171.008C16.9068 151.147 6.15007 127.931 1.9074 103.391C0.865103 97.3762 1.00643 93.7328 1.00643 93.7328C1.00643 93.7328 29.2441 91.1164 62.0183 102.9C91.0649 113.352 123.67 135.122 143.321 180.097V180.129C143.445 180.398 143.569 180.666 143.675 180.943C149.558 194.552 154.228 210.269 157.288 228.425C157.288 228.457 157.288 228.493 157.288 228.525C157.08 228.525 156.885 228.525 156.677 228.525C116.137 228.467 79.1792 213.709 51.3338 189.574C48.4224 187.058 45.5959 184.429 42.8929 181.712" stroke="#E5E5E5" stroke-width="1.70302" stroke-miterlimit="10"/>
<path d="M143.346 180.108V180.072C143.346 180.072 143.346 180.098 143.346 180.108Z" stroke="#E5E5E5" stroke-width="1.70302" stroke-miterlimit="10"/>
<path opacity="0.9" d="M312.693 93.7422C305.673 169.06 238.849 228.192 157.348 228.496C157.397 225.072 158.567 186.412 184.091 151.363C195.506 135.546 210.838 122.413 228.843 113.025C229.351 112.757 229.85 112.502 230.369 112.244C230.998 111.921 231.637 111.598 232.273 111.294C232.439 111.204 232.627 111.126 232.796 111.036C233.425 110.735 234.051 110.432 234.69 110.141C235.022 109.986 235.354 109.818 235.697 109.686C236.382 109.363 237.082 109.04 237.782 108.746C238.481 108.452 239.096 108.174 239.757 107.896L239.993 107.796C240.492 107.583 240.99 107.383 241.499 107.179C242.124 106.911 242.753 106.666 243.392 106.42C245.251 105.68 247.169 104.976 249.123 104.308L249.798 104.072C250.625 103.781 251.457 103.501 252.293 103.232C269.224 97.7442 289.183 94.2784 312.693 93.7422Z" stroke="#E5E5E5" stroke-width="1.70302" stroke-miterlimit="10"/>
<path d="M204.539 63.6549C187.893 75.1829 169.143 93.3518 156.769 121.056C142.068 92.5669 124.2 74.5433 108.848 63.3093C117.914 47.8472 138.467 16.4416 157.161 1.75146C157.176 1.75146 185.441 27.3107 204.539 63.6549Z" stroke="#E5E5E5" stroke-width="1.70302" stroke-miterlimit="10"/>
<path d="M47.7977 145.94C47.8023 145.917 47.8023 145.894 47.7977 145.872C47.7977 145.849 47.7977 145.83 47.7977 145.785C47.792 145.748 47.792 145.711 47.7977 145.675C47.8062 145.753 47.8214 145.831 47.8436 145.907C47.839 145.915 47.8323 145.923 47.8245 145.928C47.8164 145.934 47.8076 145.938 47.7977 145.94Z" fill="white"/>
<path d="M47.9315 167.407C47.37 169.059 46.6538 170.664 45.7903 172.203C45.5465 172.639 45.3027 173.063 45.0342 173.495C44.1184 175.07 42.992 176.535 41.6812 177.856C41.448 177.788 41.2183 177.701 41.0099 177.62C40.9604 177.62 40.9251 177.588 40.8862 177.578C36.6463 175.889 33.4664 172.733 32.523 169.18C31.6786 166.05 32.4347 162.662 30.8094 159.719C28.8167 156.098 23.4108 153.828 22.7395 149.739C22.1283 145.914 25.8947 142.403 25.2835 138.656C24.5768 134.422 18.8848 131.906 17.8353 127.768C17.1605 125.184 17.7612 122.235 17.5174 119.583C17.2366 116.621 16.6882 113.686 15.8779 110.807C16.2701 110.784 16.6588 110.775 17.051 110.765C25.0609 110.639 32.9506 114.754 35.544 120.536C37.6321 125.21 36.5686 130.607 39.3457 134.99C39.5118 135.274 39.6994 135.547 39.9075 135.807C40.2718 136.267 40.6647 136.707 41.0841 137.125L41.9638 137.965C42.1087 138.098 42.2677 138.22 42.4161 138.366C42.5645 138.511 42.7199 138.637 42.8683 138.782C44.2498 139.987 45.6561 141.208 46.5747 142.658C46.6567 142.784 46.7298 142.915 46.7938 143.049C46.8786 143.182 46.952 143.32 47.0128 143.463C47.0916 143.609 47.1612 143.758 47.2213 143.912C47.2955 144.08 47.3555 144.257 47.4156 144.425C47.5039 144.693 47.5887 144.952 47.6488 145.22C47.6488 145.288 47.6488 145.342 47.6735 145.397C47.6983 145.452 47.6735 145.443 47.6735 145.465C47.6785 145.487 47.6785 145.511 47.6735 145.533C47.6735 145.578 47.6735 145.611 47.6983 145.643V145.665C47.7 145.707 47.7085 145.749 47.723 145.788C47.723 145.833 47.723 145.853 47.723 145.875C47.7276 145.898 47.7276 145.921 47.723 145.943V145.966L46.7796 158.443C47.3803 161.457 48.8854 164.467 47.9315 167.407Z" fill="white"/>
<path d="M55.0369 137.119C55.6482 134.412 55.6976 131.573 57.0897 128.989C59.6831 124.228 67.2654 120.772 75.2046 120.549H75.3494C76.0561 120.549 76.8051 120.549 77.54 120.584C76.7189 123.06 76.1571 125.602 75.8618 128.175C75.5932 130.465 76.2151 133.02 75.5332 135.229C74.4202 138.805 68.4879 140.976 67.7601 144.632C67.1241 147.862 71.0495 150.905 70.4029 154.202C69.6963 157.733 64.0785 159.694 62.0009 162.82C60.3262 165.359 61.107 168.276 60.2343 170.973C59.2203 174.045 55.8955 176.787 51.479 178.227C51.1998 178.318 50.9419 178.405 50.6593 178.483C50.5109 178.518 50.3413 178.573 50.1929 178.609C50.1434 178.573 50.0975 178.528 50.0339 178.483C48.6206 177.375 47.0236 175.508 45.7021 173.508L45.8011 172.236C46.6646 170.696 47.3808 169.092 47.9422 167.439C48.8962 164.5 47.391 161.489 46.8398 158.473L47.7832 145.995L48.0765 145.772C48.1832 145.7 48.2846 145.621 48.3803 145.536C49.836 144.464 51.4012 143.437 52.5283 142.216C53.9204 140.717 54.5705 139.076 55.0016 137.371" fill="white"/>
<path d="M55.0015 137.3C55.0015 137.242 55.0227 137.187 55.0368 137.119L55.0015 137.3Z" fill="white"/>
<path d="M55.0358 137.109C55.0358 137.177 55.0111 137.232 55.0005 137.29C54.5836 139.012 53.9405 140.652 52.5272 142.135C51.4001 143.356 49.8349 144.396 48.3792 145.456C48.2845 145.541 48.1831 145.62 48.0754 145.691L47.7821 145.927C47.7881 145.913 47.7881 145.896 47.7821 145.882C47.7821 145.837 47.7574 145.804 47.7468 145.772C47.7411 145.736 47.7411 145.699 47.7468 145.662V145.64C47.7468 145.607 47.7468 145.575 47.722 145.53C47.7273 145.508 47.7273 145.485 47.722 145.462C47.7273 145.451 47.7298 145.44 47.7298 145.428C47.7298 145.416 47.7273 145.405 47.722 145.394C47.7129 145.334 47.6998 145.275 47.6832 145.216C47.6231 144.948 47.5383 144.69 47.45 144.422C47.3899 144.254 47.3299 144.076 47.2557 143.908C47.1956 143.755 47.126 143.605 47.0472 143.459C46.9939 143.314 46.9204 143.175 46.8281 143.046C46.7642 142.912 46.6911 142.781 46.6091 142.655C45.6904 141.214 44.2842 139.994 42.9027 138.779C42.7543 138.634 42.5953 138.488 42.4505 138.362C42.3056 138.236 42.1431 138.094 41.9982 137.962L41.1185 137.122C40.6991 136.704 40.3062 136.264 39.9419 135.804C39.9419 135.804 40.8005 122.884 48.0259 118.979C54.8168 115.261 55.0358 134.929 55.0358 137.109Z" fill="white"/>
<path d="M55.0015 137.3C55.0015 137.242 55.0227 137.187 55.0368 137.119L55.0015 137.3Z" fill="white"/>
<path d="M47.784 145.894V145.952C47.7886 145.93 47.7886 145.907 47.784 145.885C47.784 145.862 47.784 145.843 47.784 145.797C47.7784 145.761 47.7784 145.724 47.784 145.688C47.7787 145.756 47.7787 145.825 47.784 145.894Z" fill="white"/>
<path d="M72.2469 124.686C59.2199 137.503 53.0933 164.522 50.7119 178.472C50.5176 179.648 50.3409 180.733 50.189 181.702" fill="white"/>
<path d="M73.4385 189.552L67.432 221.878C67.2892 222.762 66.8087 223.572 66.0752 224.163C65.3417 224.755 64.403 225.089 63.4253 225.108H32.135C31.1465 225.089 30.1985 224.747 29.4622 224.143C28.7258 223.54 28.2503 222.716 28.1213 221.82L22.5918 189.545L73.4385 189.552Z" fill="white"/>
<path d="M79.1446 185.943C79.0898 186.901 78.6418 187.805 77.8896 188.474C77.1377 189.142 76.1374 189.527 75.0884 189.551H21.0583C20.0199 189.528 19.0278 189.151 18.278 188.494C17.5281 187.836 17.0743 186.946 17.0058 185.998C16.7762 183.692 18.6559 181.699 21.0583 181.699H75.0884C77.4628 181.702 79.3354 183.66 79.1446 185.943Z" fill="white"/>
<path d="M47.8226 145.964C47.8215 145.891 47.8084 145.819 47.7837 145.75L47.8226 145.964Z" fill="white"/>
<path d="M21.0469 115.552C33.551 130.41 39.4196 161.702 41.7339 177.862C41.9318 179.264 42.1084 180.546 42.2462 181.696" fill="white"/>
<path d="M48.9206 131.327C47.3553 135.733 47.2811 140.184 47.4649 143C47.5168 143.911 47.6228 144.818 47.7829 145.717" fill="white"/>
<path d="M47.7977 145.94C47.8023 145.917 47.8023 145.894 47.7977 145.872C47.7977 145.849 47.7977 145.83 47.7977 145.785C47.792 145.748 47.792 145.711 47.7977 145.675C47.8062 145.753 47.8214 145.831 47.8436 145.907C47.839 145.915 47.8323 145.923 47.8245 145.928C47.8164 145.934 47.8076 145.938 47.7977 145.94Z" stroke="#E5E5E5" stroke-width="1.70302" stroke-miterlimit="10"/>
<path d="M47.9315 167.407C47.37 169.059 46.6538 170.664 45.7903 172.203C45.5465 172.639 45.3027 173.063 45.0342 173.495C44.1184 175.07 42.992 176.535 41.6812 177.856C41.448 177.788 41.2183 177.701 41.0099 177.62C40.9604 177.62 40.9251 177.588 40.8862 177.578C36.6463 175.889 33.4664 172.733 32.523 169.18C31.6786 166.05 32.4347 162.662 30.8094 159.719C28.8167 156.098 23.4108 153.828 22.7395 149.739C22.1283 145.914 25.8947 142.403 25.2835 138.656C24.5768 134.422 18.8848 131.906 17.8353 127.768C17.1605 125.184 17.7612 122.235 17.5174 119.583C17.2366 116.621 16.6882 113.686 15.8779 110.807C16.2701 110.784 16.6588 110.775 17.051 110.765C25.0609 110.639 32.9506 114.754 35.544 120.536C37.6321 125.21 36.5686 130.607 39.3457 134.99C39.5118 135.274 39.6994 135.547 39.9075 135.807C40.2718 136.267 40.6647 136.707 41.0841 137.125L41.9638 137.965C42.1087 138.098 42.2677 138.22 42.4161 138.366C42.5645 138.511 42.7199 138.637 42.8683 138.782C44.2498 139.987 45.6561 141.208 46.5747 142.658C46.6567 142.784 46.7298 142.915 46.7938 143.049C46.8786 143.182 46.952 143.32 47.0128 143.463C47.0916 143.609 47.1612 143.758 47.2213 143.912C47.2955 144.08 47.3555 144.257 47.4156 144.425C47.5039 144.693 47.5887 144.952 47.6488 145.22C47.6488 145.288 47.6488 145.342 47.6735 145.397C47.6983 145.452 47.6735 145.443 47.6735 145.465C47.6785 145.487 47.6785 145.511 47.6735 145.533C47.6735 145.578 47.6735 145.611 47.6983 145.643V145.665C47.7 145.707 47.7085 145.749 47.723 145.788C47.723 145.833 47.723 145.853 47.723 145.875C47.7276 145.898 47.7276 145.921 47.723 145.943V145.966L46.7796 158.443C47.3803 161.457 48.8854 164.467 47.9315 167.407Z" stroke="#E5E5E5" stroke-width="1.70302" stroke-miterlimit="10"/>
<path d="M55.0369 137.119C55.6482 134.412 55.6976 131.573 57.0897 128.989C59.6831 124.228 67.2654 120.772 75.2046 120.549H75.3494C76.0561 120.549 76.8051 120.549 77.54 120.584C76.7189 123.06 76.1571 125.602 75.8618 128.175C75.5932 130.465 76.2151 133.02 75.5332 135.229C74.4202 138.805 68.4879 140.976 67.7601 144.632C67.1241 147.862 71.0495 150.905 70.4029 154.202C69.6963 157.733 64.0785 159.694 62.0009 162.82C60.3262 165.359 61.107 168.276 60.2343 170.973C59.2203 174.045 55.8955 176.787 51.479 178.227C51.1998 178.318 50.9419 178.405 50.6593 178.483C50.5109 178.518 50.3413 178.573 50.1929 178.609C50.1434 178.573 50.0975 178.528 50.0339 178.483C48.6206 177.375 47.0236 175.508 45.7021 173.508L45.8011 172.236C46.6646 170.696 47.3808 169.092 47.9422 167.439C48.8962 164.5 47.391 161.489 46.8398 158.473L47.7832 145.995L48.0765 145.772C48.1832 145.7 48.2846 145.621 48.3803 145.536C49.836 144.464 51.4012 143.437 52.5283 142.216C53.9204 140.717 54.5705 139.076 55.0016 137.371" stroke="#E5E5E5" stroke-width="1.70302" stroke-miterlimit="10"/>
<path d="M55.0015 137.3C55.0015 137.242 55.0227 137.187 55.0368 137.119" stroke="#E5E5E5" stroke-width="1.70302" stroke-miterlimit="10"/>
<path d="M55.0358 137.109C55.0358 137.177 55.0111 137.232 55.0005 137.29C54.5836 139.012 53.9405 140.652 52.5272 142.135C51.4001 143.356 49.8349 144.396 48.3792 145.456C48.2845 145.541 48.1831 145.62 48.0754 145.691L47.7821 145.927C47.7881 145.913 47.7881 145.896 47.7821 145.882C47.7821 145.837 47.7574 145.804 47.7468 145.772C47.7411 145.736 47.7411 145.699 47.7468 145.662V145.64C47.7468 145.607 47.7468 145.575 47.722 145.53C47.7273 145.508 47.7273 145.485 47.722 145.462C47.7273 145.451 47.7298 145.44 47.7298 145.428C47.7298 145.416 47.7273 145.405 47.722 145.394C47.7129 145.334 47.6998 145.275 47.6832 145.216C47.6231 144.948 47.5383 144.69 47.45 144.422C47.3899 144.254 47.3299 144.076 47.2557 143.908C47.1956 143.755 47.126 143.605 47.0472 143.459C46.9939 143.314 46.9204 143.175 46.8281 143.046C46.7642 142.912 46.6911 142.781 46.6091 142.655C45.6904 141.214 44.2842 139.994 42.9027 138.779C42.7543 138.634 42.5953 138.488 42.4505 138.362C42.3056 138.236 42.1431 138.094 41.9982 137.962L41.1185 137.122C40.6991 136.704 40.3062 136.264 39.9419 135.804C39.9419 135.804 40.8005 122.884 48.0259 118.979C54.8168 115.261 55.0358 134.929 55.0358 137.109Z" stroke="#E5E5E5" stroke-width="1.70302" stroke-miterlimit="10"/>
<path d="M55.0015 137.3C55.0015 137.242 55.0227 137.187 55.0368 137.119" stroke="#E5E5E5" stroke-width="1.70302" stroke-miterlimit="10"/>
<path d="M47.784 145.894V145.952C47.7886 145.93 47.7886 145.907 47.784 145.885C47.784 145.862 47.784 145.843 47.784 145.797C47.7784 145.761 47.7784 145.724 47.784 145.688C47.7787 145.756 47.7787 145.825 47.784 145.894Z" stroke="#E5E5E5" stroke-width="1.70302" stroke-miterlimit="10"/>
<path d="M72.2469 124.686C59.2199 137.503 53.0933 164.522 50.7119 178.472C50.5176 179.648 50.3409 180.733 50.189 181.702" stroke="#E5E5E5" stroke-width="1.70302" stroke-miterlimit="10"/>
<path d="M73.4385 189.552L67.432 221.878C67.2892 222.762 66.8087 223.572 66.0752 224.163C65.3417 224.755 64.403 225.089 63.4253 225.108H32.135C31.1465 225.089 30.1985 224.747 29.4622 224.143C28.7258 223.54 28.2503 222.716 28.1213 221.82L22.5918 189.545L73.4385 189.552Z" stroke="#E5E5E5" stroke-width="1.70302" stroke-miterlimit="10"/>
<path d="M79.1446 185.943C79.0898 186.901 78.6418 187.805 77.8896 188.474C77.1377 189.142 76.1374 189.527 75.0884 189.551H21.0583C20.0199 189.528 19.0278 189.151 18.278 188.494C17.5281 187.836 17.0743 186.946 17.0058 185.998C16.7762 183.692 18.6559 181.699 21.0583 181.699H75.0884C77.4628 181.702 79.3354 183.66 79.1446 185.943Z" stroke="#E5E5E5" stroke-width="1.70302" stroke-miterlimit="10"/>
<path d="M47.8226 145.964C47.8215 145.891 47.8084 145.819 47.7837 145.75L47.8226 145.964Z" stroke="#E5E5E5" stroke-width="1.70302" stroke-miterlimit="10"/>
<path d="M21.0469 115.552C33.551 130.41 39.4196 161.702 41.7339 177.862C41.9318 179.264 42.1084 180.546 42.2462 181.696" stroke="#E5E5E5" stroke-width="1.70302" stroke-miterlimit="10"/>
<path d="M48.9206 131.327C47.3553 135.733 47.2811 140.184 47.4649 143C47.5168 143.911 47.6228 144.818 47.7829 145.717" stroke="#E5E5E5" stroke-width="1.70302" stroke-miterlimit="10"/>
<path d="M252.293 103.232C251.455 103.501 250.623 103.781 249.799 104.072L249.124 104.308C247.17 104.976 245.237 105.68 243.393 106.42C242.754 106.666 242.125 106.911 241.499 107.179C240.99 107.383 240.492 107.583 239.994 107.796L239.757 107.896C239.097 108.174 238.432 108.455 237.782 108.746C237.132 109.036 236.369 109.359 235.698 109.686C235.344 109.831 235.023 109.986 234.691 110.141C234.051 110.432 233.426 110.735 232.797 111.036C232.62 111.126 232.444 111.204 232.274 111.294C231.638 111.617 230.998 111.921 230.37 112.244C229.85 112.502 229.352 112.757 228.843 113.026C210.838 122.412 195.507 135.547 184.091 151.363C158.567 186.412 157.398 225.072 157.348 228.496L157.292 228.392C154.236 210.249 149.561 194.529 143.689 180.911L144.148 179.525L143.346 180.094C143.346 180.094 143.346 180.094 143.346 180.071C144.494 157.018 149.43 137.758 156.511 121.656L157.175 121.792C157.045 121.543 156.914 121.288 156.783 121.042C169.149 93.3385 187.907 75.1761 204.552 63.6417C224.169 50.0756 240.899 45.6763 240.899 45.6763C249.831 55.7733 251.866 86.6201 252.293 103.232Z" stroke="#E5E5E5" stroke-width="1.70302" stroke-miterlimit="10"/>
<path d="M253.484 222.488C250.88 222.01 248.322 221.441 245.827 220.773C235.581 218.037 223.663 213.36 219.589 203.531C218.568 200.992 218.245 198.262 218.651 195.582C219.058 192.903 220.179 190.355 221.918 188.166C223.764 185.831 226.356 184.076 229.338 183.143C235.821 181.228 242.993 184.212 247.802 188.634C252.611 193.056 255.706 198.734 259.462 203.925C256.059 196.951 252.6 189.781 252.13 182.155C251.777 176.211 253.544 169.771 258.017 165.304C262.14 161.195 271.796 157.975 277.471 160.995C281.219 162.988 282.71 167.225 283.357 171.143C285.124 181.864 282.855 192.759 280.598 203.402C282.113 197.71 283.742 191.967 286.827 186.835C289.911 181.702 294.649 177.164 300.709 175.265C304.949 173.934 309.994 174.08 313.552 176.583C316.87 178.921 318.35 182.868 318.806 186.673C319.569 193.053 317.926 199.526 315.1 205.408C304.553 227.32 275.315 226.49 253.484 222.488Z" fill="white"/>
<path d="M277.273 211.638C277.273 211.638 293.526 215.766 299.264 195.113L277.273 211.638Z" fill="white"/>
<path d="M270.04 176.386C265.521 185.753 270.04 213.854 270.04 213.854V176.386Z" fill="white"/>
<path d="M254.978 211.002C254.3 210.895 247.781 210.062 242.223 207.727C237.92 205.918 234.188 203.205 234.188 199.245" fill="white"/>
<path d="M243.532 199.245C243.532 199.245 237.172 206.028 242.224 207.727L243.532 199.245Z" fill="white"/>
<path d="M239.312 213.89C240.216 212.74 244.919 215.046 247.989 209.623L239.312 213.89Z" fill="white"/>
<path d="M268.033 188.78C266.426 187.678 262.207 188.78 261.606 179.965L268.033 188.78Z" fill="white"/>
<path d="M268.733 197.042C268.733 197.042 275.764 194.723 275.764 189.687L268.733 197.042Z" fill="white"/>
<path d="M283.849 211.758C283.849 211.758 287.516 203.101 289.021 199.245L283.849 211.758Z" fill="white"/>
<path d="M295.236 203.486C295.236 203.486 299.264 206.393 304.069 201.726L295.236 203.486Z" fill="white"/>
<path d="M295.236 199.245C295.236 199.245 292.636 198.214 293.823 192.258L295.236 199.245Z" fill="white"/>
<path d="M253.484 222.488C250.851 222.165 248.322 221.441 245.827 220.773C235.581 218.037 223.663 213.36 219.589 203.531C218.568 200.992 218.245 198.262 218.651 195.582C219.058 192.903 220.179 190.355 221.918 188.166C223.764 185.831 226.356 184.076 229.338 183.143C235.821 181.228 242.994 184.212 247.802 188.634C252.611 193.056 255.706 198.734 259.462 203.925C256.059 196.951 252.6 189.781 252.13 182.155C251.777 176.211 253.544 169.771 258.017 165.304C262.14 161.195 271.796 157.975 277.471 160.995C281.22 162.988 282.711 167.225 283.357 171.143C285.124 181.864 282.855 192.759 280.598 203.402C282.113 197.71 283.742 191.967 286.827 186.835C289.911 181.702 294.649 177.164 300.709 175.265C304.949 173.934 309.994 174.08 313.552 176.583C316.87 178.921 318.35 182.868 318.806 186.673C319.569 193.053 318.029 199.568 315.1 205.408C304.383 226.742 274.916 225.13 253.484 222.488Z" stroke="#E5E5E5" stroke-width="1.70302" stroke-miterlimit="10"/>
<path d="M277.273 211.638C277.273 211.638 293.526 215.766 299.264 195.113" stroke="#E5E5E5" stroke-width="1.70302" stroke-miterlimit="10"/>
<path d="M270.04 176.386C265.521 185.753 270.04 213.854 270.04 213.854" stroke="#E5E5E5" stroke-width="1.70302" stroke-miterlimit="10"/>
<path d="M254.978 211.002C254.3 210.895 247.781 210.062 242.223 207.727C237.92 205.918 234.188 203.205 234.188 199.245" stroke="#E5E5E5" stroke-width="1.70302" stroke-miterlimit="10"/>
<path d="M243.532 199.245C243.532 199.245 237.172 206.028 242.224 207.727" stroke="#E5E5E5" stroke-width="1.70302" stroke-miterlimit="10"/>
<path d="M239.312 213.89C240.216 212.74 244.919 215.046 247.989 209.623" stroke="#E5E5E5" stroke-width="1.70302" stroke-miterlimit="10"/>
<path d="M268.033 188.78C266.426 187.678 262.207 188.78 261.606 179.965" stroke="#E5E5E5" stroke-width="1.70302" stroke-miterlimit="10"/>
<path d="M268.733 197.042C268.733 197.042 275.764 194.723 275.764 189.687" stroke="#E5E5E5" stroke-width="1.70302" stroke-miterlimit="10"/>
<path d="M283.849 211.758C283.849 211.758 287.516 203.101 289.021 199.245" stroke="#E5E5E5" stroke-width="1.70302" stroke-miterlimit="10"/>
<path d="M295.236 203.486C295.236 203.486 299.264 206.393 304.069 201.726" stroke="#E5E5E5" stroke-width="1.70302" stroke-miterlimit="10"/>
<path d="M295.236 199.245C295.236 199.245 292.636 198.214 293.823 192.258" stroke="#E5E5E5" stroke-width="1.70302" stroke-miterlimit="10"/>
<path d="M262.904 182.584C263.804 179.856 263.988 176.972 263.441 174.167C263.148 172.552 262.317 168.152 259.749 168.834C259.003 169.024 258.562 169.606 258.282 170.265C258.611 168.811 256.311 167.894 255.187 167.761C252.34 167.393 250.259 169.225 248.902 171.46C245.93 176.369 238.03 178.74 232.525 178.75C224.784 178.75 220.159 173.259 218.83 166.153C215.297 147.361 214.354 102.092 177.322 89.682C175.288 88.9937 173.209 88.422 171.097 87.9701V88.025C171.072 88.025 171.047 88.025 171.022 87.9475C171.006 87.9042 170.995 87.8599 170.987 87.815C172.158 87.6564 173.318 87.4355 174.46 87.1529C175.941 86.8073 177.467 86.4035 178.545 85.5379C179.841 84.5107 180.279 83.0023 180.389 81.5585C180.389 81.3356 180.414 81.0998 180.414 80.877C180.426 80.6951 180.426 80.5129 180.414 80.3311C180.414 80.0727 180.414 79.8143 180.414 79.5462C180.414 79.3459 180.414 79.1327 180.414 78.9325L182.216 73.674C182.876 72.4983 183.534 71.3193 183.823 70.0661C183.944 69.5612 183.998 69.045 183.982 68.5286C183.982 68.4187 183.982 68.3057 183.982 68.1829C183.848 66.0027 182.686 63.845 181.06 62.0459C180.763 59.6599 180.252 57.3007 179.53 54.9915C177.255 47.4333 172.708 39.2161 163.829 36.9357C157.271 35.2593 149.629 35.3594 143.184 37.6075C143.178 37.6098 143.172 37.6108 143.166 37.6108C143.16 37.6108 143.154 37.6098 143.149 37.6075L142.541 37.8369L143.149 37.6075C142.73 37.7212 142.324 37.875 141.94 38.0662C139.838 39.1063 139.114 41.4868 139.227 44.1031C139.227 44.2491 139.238 44.3948 139.262 44.5392C139.262 44.7297 139.287 44.93 139.322 45.1206C139.64 47.682 140.693 50.3177 142.015 52.0199C141.955 52.1523 141.891 52.2751 141.841 52.4107C141.283 53.5832 140.56 54.6843 139.69 55.686C137.746 57.947 135.118 59.5975 133.22 61.8586C131.323 64.1196 130.214 67.0654 130.715 69.8949C131.203 72.6339 133.086 75.0274 133.514 77.7535C133.916 80.2471 133.16 83.0992 134.824 85.1018C135.849 86.3195 137.549 86.8783 139.177 87.3015C139.884 87.4823 140.591 87.6245 141.297 87.7731C141.209 88.0056 141.184 88.0185 141.135 88.0282C139.107 88.464 137.111 89.0131 135.157 89.6723L134.863 89.7724C98.1355 102.334 97.1709 147.403 93.6589 166.137C92.341 173.243 87.7054 178.734 79.9641 178.734C74.4593 178.734 66.559 176.353 63.5876 171.444C62.2167 169.208 60.1533 167.377 57.302 167.745C56.189 167.891 54.0125 168.74 54.221 170.126C54.216 170.177 54.216 170.229 54.221 170.281V170.336C54.221 170.336 54.221 170.371 54.221 170.381V170.416C53.9525 169.699 53.5143 169.063 52.7158 168.85C50.1472 168.168 49.3169 172.561 49.0236 174.183C48.4774 176.988 48.6611 179.872 49.5607 182.6C50.7478 186.211 53.2282 189.59 56.9098 191.053C59.9494 192.193 63.1254 193.002 66.3718 193.463C61.4818 197.814 58.3125 203.46 58.4609 210.682C58.5704 215.204 61.556 218.363 66.2128 220.475C72.1804 223.202 80.8898 224.219 89.7441 224.297H89.7935C88.7855 224.471 87.8011 224.745 86.8574 225.114C85.7706 225.528 84.7477 226.071 83.8153 226.729C83.4832 226.966 83.1652 227.211 82.8613 227.465C82.7016 227.592 82.5493 227.727 82.4055 227.869C82.1158 228.137 81.8332 228.418 81.5646 228.709C81.0442 229.282 80.5714 229.892 80.1513 230.53C79.9429 230.853 79.7486 231.176 79.579 231.499C79.4094 231.822 79.2468 232.184 79.0984 232.517C78.8698 233.028 78.6868 233.555 78.5508 234.093C78.4519 234.442 78.3671 234.788 78.2929 235.146C77.6569 238.589 78.5261 242.146 81.1901 244.704C81.6759 245.166 82.2042 245.588 82.7695 245.967C83.0627 246.157 83.3701 246.338 83.6846 246.516C84.3506 246.874 85.0509 247.177 85.7762 247.42C86.5733 247.692 87.392 247.908 88.2248 248.066C94.0829 249.148 98.7397 245.673 104.025 244.19C107.039 243.376 110.177 243.009 113.318 243.105C115.366 243.161 117.407 243.346 119.427 243.657C141.607 246.975 164.115 248.092 186.558 246.991C201.723 246.228 217.191 244.487 231.585 239.846C242.418 236.351 254.339 230.211 259.675 220.724C261.567 217.384 262.546 213.675 262.526 209.913C262.526 202.009 258.993 196.118 253.488 191.77C254.195 191.534 254.88 191.299 255.555 191.03C259.236 189.574 261.717 186.195 262.904 182.584Z" fill="white"/>
<path d="M113.306 243.119C110.163 243.021 107.023 243.386 104.007 244.201C98.7248 245.683 94.0645 249.162 88.2029 248.077C72.9429 245.264 76.1263 226.665 89.8034 224.294H89.8246C91.1355 224.268 92.4463 224.259 93.7465 224.259H93.8313C100.131 224.259 106.268 224.41 111.307 222.821C110.819 223.215 98.5517 233.17 113.306 243.119Z" fill="#00A62F"/>
<path d="M177.314 89.6436C177.314 89.6436 177.314 89.6694 177.314 89.6791C179.137 94.8326 181.365 99.8588 183.982 104.718L184.013 104.773" stroke="#404040" stroke-width="1.70302" stroke-miterlimit="10"/>
<path d="M195.649 179.513C178.625 181.993 162.115 185.795 144.749 183.773C135.343 182.665 126.122 180.462 116.836 178.741C122.62 170.233 124.86 159.277 123.956 149.742C123.369 143.479 120.225 137.419 120.384 131.182C120.493 126.957 121.348 122.752 122.536 118.682C123.933 113.888 125.831 109.228 128.203 104.767C128.203 104.747 128.228 104.735 128.238 104.712C130.858 99.8559 133.09 94.8332 134.916 89.6826C136.945 88.992 139.019 88.4203 141.127 87.9707L141.481 90.306C142.35 95.7971 144.392 103.724 150.667 106.317C151.967 106.838 153.371 107.108 154.79 107.109C157.589 107.367 161.334 106.317 161.334 106.317C167.605 103.733 169.637 95.8067 170.52 90.306L170.874 87.9707C172.981 88.4168 175.056 88.9843 177.085 89.6697C178.911 94.8222 181.143 99.8472 183.763 104.705C183.777 104.721 183.785 104.74 183.788 104.76C186.154 109.22 188.048 113.878 189.441 118.669C190.702 122.742 191.426 126.939 191.596 131.169C191.755 137.406 188.624 143.466 188.024 149.729C187.063 159.567 189.472 170.905 195.649 179.513Z" fill="#404040"/>
<path d="M253.478 191.764C258.982 196.112 262.516 202.003 262.526 209.92C262.543 213.68 261.563 217.386 259.671 220.725C254.343 230.201 242.422 236.332 231.572 239.837C217.174 244.478 201.712 246.216 186.541 246.981C164.104 248.087 141.602 246.972 119.427 243.658C117.401 243.348 115.354 243.166 113.3 243.115C110.158 243.018 107.02 243.384 104.005 244.197C98.7224 245.68 94.0621 249.158 88.2004 248.073C72.9404 245.26 76.1239 226.661 89.801 224.29" stroke="#404040" stroke-width="1.70302" stroke-miterlimit="10"/>
<path d="M217.498 215.272C212.975 224.733 201.782 221.493 189.483 214.687C181.855 210.462 175.35 209.858 171.506 210.001C176.922 209.558 181.66 208.03 182.989 202.433C184.066 197.878 181.261 193.712 176.41 192.368C188.07 191.9 200.044 192.691 209.537 199.406C209.537 199.406 222.031 205.805 217.498 215.272Z" fill="#00A62F"/>
<path d="M150.31 82.8021C150.164 83.8079 149.772 84.7708 149.162 85.6187C148.183 86.8493 146.579 87.5406 144.943 87.7537C143.93 87.6242 142.927 87.4301 141.944 87.1723C140.308 86.746 138.619 86.1872 137.591 84.9695C135.916 82.9572 136.686 80.105 136.283 77.6147C135.842 74.895 133.959 72.4919 133.482 69.7657C132.969 66.9362 134.082 63.9969 135.976 61.7262C137.615 59.7882 139.781 58.283 141.58 56.4839C141.58 56.7164 141.555 56.9652 141.541 57.2106C140.89 57.8977 140.4 58.6994 140.1 59.5657C139.8 60.4319 139.697 61.3454 139.796 62.2495C139.895 63.1539 140.195 64.0302 140.677 64.8248C141.16 65.6197 141.814 66.3161 142.601 66.8716C143.286 69.5429 145.035 75.344 149.402 78.7872C149.776 79.2591 150.061 79.7856 150.243 80.3441C150.456 81.1496 150.479 81.9875 150.31 82.8021Z" fill="#00D83C"/>
<path d="M183.855 69.9276C183.283 72.4179 181.226 74.5982 180.65 77.0918C180.332 78.513 180.481 79.9762 180.382 81.42C180.332 82.3541 180.078 83.2701 179.636 84.1138C179.353 84.5987 178.982 85.0357 178.537 85.4058C177.46 86.2683 175.93 86.6817 174.453 87.0208C172.188 87.5473 169.828 87.9899 167.482 87.7928C164.804 87.557 162.101 86.0034 161.122 83.6455C160.352 81.8011 160.963 80.3573 161.991 79.0265V79.0039C163.114 78.231 164.143 77.3508 165.062 76.3779C169.302 66.7104 171.238 69.4237 171.75 66.2809C173.693 65.0728 172.227 62.8829 172.227 60.5799C172.227 58.9358 172.121 58.0669 171.058 56.9041L173.266 56.4325C172.361 55.4473 172.962 55.7865 171.566 55.4086L171.058 55.4603C170.298 55.5701 171.785 55.1599 170.874 55.2988C153.137 57.9894 149.742 39.5588 149.141 36.6874C148.604 37.2106 146.615 36.8973 146.187 37.4787C146.003 37.7274 147.954 40.7475 147.791 41.0027C147.745 40.8121 147.707 40.6474 147.682 40.5117C147.154 41.0269 146.672 41.5799 146.24 42.1655C144.81 44.0331 143.735 46.1077 143.06 48.3025C143.036 48.3671 143.021 48.4446 142.997 48.5125C142.744 49.6498 142.422 50.7735 142.032 51.8782C140.442 49.8336 139.206 46.413 139.206 43.4026C139.206 41.022 139.976 38.8805 141.93 37.9115C141.986 37.8825 142.043 37.8566 142.103 37.834C142.437 37.6815 142.784 37.554 143.142 37.4529C143.142 37.4529 143.166 37.4529 143.18 37.4529C149.625 35.1918 157.278 35.0949 163.822 36.7713C172.711 39.0517 177.248 47.2818 179.537 54.8369C180.253 57.147 180.765 59.5059 181.067 61.8912C183.184 64.2233 184.491 67.1207 183.855 69.9276Z" fill="#00D83C"/>
<path d="M106.04 197.371L124.183 196.05C138.035 195.045 151.89 194.038 165.748 193.03C169.214 192.785 172.814 192.507 176.407 192.365C188.067 191.897 200.041 192.688 209.535 199.403C209.535 199.403 222.028 205.802 217.495 215.269C212.962 224.736 201.779 221.49 189.48 214.684C181.852 210.46 175.347 209.856 171.503 209.998H171.464C171.047 210.017 170.648 210.043 170.302 210.078C169.466 210.136 168.638 210.263 167.829 210.46C153.717 214.523 131.867 220.169 111.336 222.811C105.539 223.592 99.6988 224.075 93.8429 224.258H93.7581C92.426 224.303 91.1152 224.313 89.815 224.294H89.769C80.9042 224.223 72.1983 223.202 66.2271 220.479C61.5704 218.357 58.5883 215.208 58.4823 210.682C58.3375 203.45 61.4997 197.808 66.4038 193.45" stroke="#404040" stroke-width="1.70302" stroke-miterlimit="10"/>
<path d="M253.429 175.462C255.792 174.464 258.566 171.227 258.244 169.922" stroke="#404040" stroke-width="1.70302" stroke-miterlimit="10"/>
<path d="M236.694 189.028C240.259 189.748 238.623 182.594 242.414 182.009C242.414 182.009 243.948 181.793 244.255 182.978C244.467 183.789 244.181 184.781 244.008 185.562C243.849 186.283 243.725 187.177 243.389 187.823C243.703 187.101 243.967 186.36 244.181 185.608C244.411 184.818 244.576 184.014 244.675 183.201C244.891 181.909 245.046 180.517 245.576 179.325C245.86 178.586 246.448 177.976 247.216 177.626C248.89 176.98 249.958 178.595 250.102 179.997C250.125 180.153 250.132 180.311 250.124 180.469C250.124 180.682 250.102 180.882 250.085 181.082C249.922 183.534 249.636 186.606 248.134 188.528C249.636 186.59 249.943 183.621 250.081 181.16C250.152 179.842 250.138 178.479 250.668 177.284C250.867 176.804 251.18 176.37 251.586 176.014C251.982 175.671 252.504 175.475 253.049 175.465C253.467 175.5 253.869 175.632 254.215 175.849C254.562 176.066 254.841 176.361 255.028 176.706C255.417 177.422 255.628 178.209 255.642 179.009C255.872 182.516 254.975 186.011 252.138 188.347" stroke="#404040" stroke-width="1.70302" stroke-miterlimit="10"/>
<path d="M183.99 104.715C186.379 109.191 188.285 113.87 189.682 118.685C190.876 122.755 191.728 126.954 191.837 131.178C191.996 137.419 188.859 143.478 188.261 149.745C186.756 165.627 193.971 185.433 211.75 191.37C218.757 193.712 226.307 194.581 233.745 194.419C240.811 194.267 249.015 193.615 255.555 191.034C259.237 189.574 261.717 186.189 262.911 182.584C263.805 179.854 263.99 176.971 263.452 174.164C263.148 172.549 262.325 168.153 259.749 168.834C258.894 169.054 258.445 169.784 258.18 170.562C257.65 172.177 257.926 173.876 257.866 175.536C257.799 177.862 257.428 182.403 255.096 183.957" stroke="#404040" stroke-width="1.70302" stroke-miterlimit="10"/>
<path d="M141.392 87.9707L141.745 90.306C142.621 95.797 144.656 103.72 150.931 106.314C152.228 106.84 153.63 107.111 155.048 107.112C157.853 107.37 161.591 106.314 161.591 106.314C167.863 103.73 169.898 95.8067 170.777 90.306L171.131 87.9707" stroke="#404040" stroke-width="1.70302" stroke-miterlimit="10"/>
<path d="M135.177 89.6436C135.177 89.6436 135.177 89.6694 135.177 89.6791C133.356 94.8332 131.126 99.8595 128.507 104.718L128.479 104.773" stroke="#404040" stroke-width="1.70302" stroke-miterlimit="10"/>
<path d="M54.3126 170.562L54.256 170.394C54.244 170.371 54.2366 170.347 54.2348 170.323C54.2348 170.323 54.2348 170.306 54.2348 170.297C53.8568 168.824 56.1569 167.9 57.3017 167.758C60.1283 167.386 62.2235 169.221 63.5838 171.459C66.5517 176.366 74.4555 178.737 79.9603 178.743C87.7051 178.743 92.3442 173.252 93.6657 166.146C97.1777 147.351 98.1387 102.085 135.17 89.672C137.205 88.9895 139.282 88.421 141.393 87.9698L141.954 87.8535" stroke="#404040" stroke-width="1.70302" stroke-miterlimit="10"/>
<path d="M170.552 87.8765C170.735 87.9023 170.905 87.9475 171.096 87.9831C173.204 88.4324 175.281 88.9986 177.314 89.6788C214.346 102.092 215.307 147.357 218.819 166.153C220.141 173.259 224.78 178.75 232.528 178.75C238.029 178.75 245.933 176.373 248.901 171.466C250.261 169.228 252.339 167.393 255.183 167.765C256.384 167.916 258.911 168.947 258.172 170.568" stroke="#404040" stroke-width="1.70302" stroke-miterlimit="10"/>
<path d="M59.062 175.462C56.6983 174.464 53.9247 171.227 54.2463 169.922" stroke="#404040" stroke-width="1.70302" stroke-miterlimit="10"/>
<path d="M75.7936 189.028C72.2251 189.748 73.861 182.594 70.0698 182.009C70.0698 182.009 68.5364 181.793 68.229 182.978C68.0205 183.789 68.3032 184.781 68.4798 185.562C68.6388 186.283 68.7625 187.177 69.0946 187.823C68.7823 187.1 68.5191 186.36 68.3067 185.608C68.0742 184.818 67.9089 184.014 67.8121 183.201C67.5965 181.909 67.4375 180.517 66.9076 179.325C66.6256 178.585 66.0384 177.976 65.2717 177.626C63.5969 176.98 62.5299 178.595 62.3815 179.997C62.3617 180.153 62.3557 180.311 62.3638 180.469C62.3638 180.682 62.3815 180.882 62.4027 181.082C62.5617 183.534 62.8514 186.606 64.3495 188.528C62.8514 186.59 62.5405 183.621 62.4062 181.16C62.332 179.842 62.3497 178.479 61.8162 177.284C61.6197 176.803 61.3067 176.369 60.9011 176.014C60.5036 175.671 59.981 175.476 59.4348 175.465C59.0168 175.5 58.6158 175.632 58.2699 175.849C57.924 176.067 57.6448 176.361 57.4597 176.706C57.0679 177.421 56.8576 178.209 56.8449 179.009C56.6153 182.516 57.5092 186.011 60.3464 188.347" stroke="#404040" stroke-width="1.70302" stroke-miterlimit="10"/>
<path d="M128.499 104.715C126.11 109.191 124.205 113.87 122.811 118.685C121.613 122.755 120.765 126.954 120.656 131.178C120.497 137.419 123.634 143.478 124.228 149.745C125.736 165.627 118.518 185.433 100.739 191.37C93.7324 193.712 86.1819 194.581 78.748 194.419C71.6815 194.267 63.4774 193.615 56.9373 191.034C53.2522 189.574 50.7754 186.189 49.5776 182.584C48.6929 179.852 48.5148 176.969 49.0583 174.164C49.3621 172.549 50.1853 168.153 52.7611 168.834C53.6126 169.054 54.0648 169.784 54.3298 170.562C54.8563 172.177 54.5842 173.876 54.6408 175.536C54.7114 177.862 55.0824 182.403 57.4143 183.957" stroke="#404040" stroke-width="1.70302" stroke-miterlimit="10"/>
<path d="M147.802 40.5308C147.235 41.0857 146.715 41.6797 146.247 42.3073C144.761 44.2327 143.66 46.3839 142.997 48.6607C142.744 49.7977 142.42 50.9205 142.025 52.0232C141.968 52.1556 141.908 52.2816 141.852 52.414C141.296 53.5885 140.575 54.6915 139.707 55.6957C137.764 57.9341 135.135 59.6008 133.231 61.8651C131.326 64.1293 130.22 67.0719 130.726 69.9046C131.213 72.6372 133.096 75.0339 133.531 77.7568C133.93 80.2504 133.178 83.0993 134.842 85.1051C135.863 86.3293 137.559 86.8881 139.191 87.3048C140.93 87.7505 142.725 88.0961 144.512 87.9508C146.3 87.8054 148.102 87.0916 149.159 85.7576C149.774 84.9149 150.167 83.953 150.307 82.9475C150.473 82.1348 150.448 81.2995 150.236 80.4959C149.883 79.3331 148.957 78.3931 148.116 77.4435C145.526 74.3792 143.676 70.8475 142.689 67.0816" stroke="#404040" stroke-width="1.70302" stroke-miterlimit="10"/>
<path d="M171.185 58.5C171.185 57.6731 171.146 56.8559 171.068 56.0322" stroke="#404040" stroke-width="1.70302" stroke-miterlimit="10"/>
<path d="M142.219 51.623C141.826 53.5146 141.599 55.4316 141.541 57.3564" stroke="#404040" stroke-width="1.70302" stroke-miterlimit="10"/>
<path d="M173.828 55.6052C173.45 55.6665 171.44 55.9702 171.069 56.0251C151.103 58.9321 150.223 45.7923 147.803 40.5403C147.803 40.5403 146.471 35.8568 141.952 38.0758C137.433 40.2948 139.249 48.7349 142.22 52.2879" stroke="#404040" stroke-width="1.70302" stroke-miterlimit="10"/>
<path d="M144.24 45.5384V45.5278" stroke="#404040" stroke-width="1.70302" stroke-miterlimit="10"/>
<path d="M176.757 57.9893L181.074 62.043" stroke="#404040" stroke-width="1.70302" stroke-miterlimit="10"/>
<path d="M148.13 77.437C148.179 77.4919 148.218 77.5436 148.275 77.605C148.324 77.6718 148.38 77.7345 148.441 77.7923C148.539 77.9173 148.646 78.0359 148.762 78.1476C148.773 78.1644 148.786 78.1796 148.801 78.1928C149.664 79.0885 150.712 79.8191 151.884 80.343C153.057 80.867 154.332 81.1735 155.634 81.2452C158.814 81.4745 160.818 80.3214 161.994 79.1683" stroke="#404040" stroke-width="1.70302" stroke-miterlimit="10"/>
<path d="M165.574 69.4849C169.619 69.4849 172.898 66.4868 172.898 62.7891C172.898 59.0911 169.619 56.0933 165.574 56.0933C161.529 56.0933 158.25 59.0911 158.25 62.7891C158.25 66.4868 161.529 69.4849 165.574 69.4849Z" stroke="#404040" stroke-width="1.70302" stroke-miterlimit="10"/>
<path d="M147.074 68.4288C151.119 68.4288 154.398 65.431 154.398 61.7329C154.398 58.0349 151.119 55.0371 147.074 55.0371C143.029 55.0371 139.75 58.0349 139.75 61.7329C139.75 65.431 143.029 68.4288 147.074 68.4288Z" stroke="#404040" stroke-width="1.70302" stroke-miterlimit="10"/>
<path d="M145.484 60.0958C145.484 60.0958 148.469 59.0748 150.784 60.1278" stroke="#404040" stroke-width="1.70302" stroke-miterlimit="10"/>
<path d="M161.957 61.0228C161.957 61.0228 164.942 60.0021 167.256 61.0551" stroke="#404040" stroke-width="1.70302" stroke-miterlimit="10"/>
<path d="M156.649 73.0539C157.72 73.0539 158.589 72.26 158.589 71.2806C158.589 70.3013 157.72 69.5073 156.649 69.5073C155.577 69.5073 154.709 70.3013 154.709 71.2806C154.709 72.26 155.577 73.0539 156.649 73.0539Z" stroke="#404040" stroke-width="1.70302" stroke-miterlimit="10"/>
<path d="M141.951 38.0764C148.64 35.3729 156.865 35.1403 163.857 36.9298C172.743 39.1908 177.283 47.4306 179.562 54.9888C180.282 57.2983 180.794 59.6575 181.092 62.0432C183.212 64.3656 184.509 67.2694 183.866 70.073C183.293 72.5666 181.248 74.7501 180.665 77.2437C180.343 78.6617 180.499 80.1281 180.393 81.5655C180.287 83.0028 179.838 84.5113 178.548 85.5384C177.471 86.4105 175.948 86.8304 174.46 87.1534C172.199 87.6864 169.839 88.1224 167.5 87.9254C164.811 87.6961 162.115 86.1424 161.14 83.7813C159.851 80.6675 162.49 78.6875 164.401 76.4976C165.611 75.1206 166.684 73.6471 167.606 72.095C168.274 70.9484 168.855 69.7613 169.344 68.542" stroke="#404040" stroke-width="1.70302" stroke-miterlimit="10"/>
<path d="M117.111 178.734C126.39 180.453 135.611 182.659 145.024 183.757C162.397 185.792 178.897 181.987 195.927 179.503" stroke="#404040" stroke-width="1.70302" stroke-miterlimit="10"/>
<path d="M23.2871 225.115H86.8605" stroke="#404040" stroke-width="1.70302" stroke-miterlimit="10"/>
<path d="M257.967 223.993H312.693" stroke="#404040" stroke-width="1.70302" stroke-miterlimit="10"/>
<path d="M296.342 147.597C299.588 150.155 302.488 153.06 304.977 156.25C309.548 161.966 312.133 168.806 312.397 175.882" stroke="#E5E5E5" stroke-width="1.70302" stroke-miterlimit="10"/>
<path d="M183.074 30.5439C189.618 26.9425 196.43 23.7609 203.68 21.4999C221.756 15.8441 241.91 17.107 256.23 29.4942C268.645 40.2276 274.514 56.158 275.712 71.4296C275.712 71.6525 275.751 71.8883 275.761 72.124C276.313 79.9956 275.86 88.6812 275.797 97.3796" stroke="#E5E5E5" stroke-width="1.70302" stroke-miterlimit="10"/>
<path d="M40.5785 96.8848C42.2179 87.3271 40.2004 78.338 39.1228 68.4993C36.3244 42.8529 45.2388 12.1968 77.536 8.36272C95.0855 6.26966 109.335 12.2646 121.196 23.757C123.864 26.341 126.528 29.3676 129.354 32.2972" stroke="#E5E5E5" stroke-width="1.70302" stroke-miterlimit="10"/>
<path d="M27.9796 181.541C27.9796 181.541 3.52273 171.69 5.9536 153.188C6.66024 147.968 9.34197 143.294 12.7409 139.005" stroke="#E5E5E5" stroke-width="1.70302" stroke-miterlimit="10"/>
</svg>
