<svg width="126" height="18" viewBox="0 0 126 18" fill="none" xmlns="http://www.w3.org/2000/svg">
<path d="M16.5588 0.218519L10.3432 17.1658H6.21564L0 0.218519H3.64197L8.3037 13.6938L12.9412 0.218519H16.5588Z" fill="#00D83C"/>
<path d="M21.996 2.96214V7.21111H27.7018V9.90617H21.996V14.3979H28.4302V17.1658H18.5968V0.194238H28.4302V2.96214H21.996Z" fill="#00D83C"/>
<path d="M43.3192 5.31728C42.9307 4.60507 42.3966 4.06283 41.7167 3.69053C41.0369 3.31824 40.2438 3.1321 39.3373 3.1321C38.3337 3.1321 37.4435 3.35871 36.6665 3.81193C35.8896 4.26516 35.2826 4.91262 34.8455 5.75432C34.4085 6.59602 34.19 7.56721 34.19 8.6679C34.19 9.80096 34.4085 10.7883 34.8455 11.63C35.2988 12.4717 35.9219 13.1192 36.7151 13.5724C37.5082 14.0256 38.4309 14.2523 39.483 14.2523C40.7779 14.2523 41.8381 13.9123 42.6636 13.2325C43.4892 12.5365 44.0314 11.5734 44.2904 10.3432H38.4632V7.74527H47.641V10.7074C47.4144 11.889 46.9288 12.9816 46.1842 13.9852C45.4396 14.9887 44.4765 15.7981 43.2949 16.4132C42.1295 17.0121 40.8184 17.3115 39.3616 17.3115C37.7267 17.3115 36.2457 16.9473 34.9184 16.2189C33.6073 15.4743 32.5713 14.4465 31.8106 13.1354C31.066 11.8243 30.6937 10.3351 30.6937 8.6679C30.6937 7.00068 31.066 5.51152 31.8106 4.20041C32.5713 2.87311 33.6073 1.84527 34.9184 1.11687C36.2457 0.372291 37.7187 0 39.3373 0C41.2473 0 42.9064 0.46941 44.3147 1.40823C45.7229 2.33086 46.6941 3.63388 47.2283 5.31728H43.3192Z" fill="#00D83C"/>
<path d="M60.5476 13.9366H53.7978L52.681 17.1658H49.1118L55.2061 0.194238H59.1637L65.2579 17.1658H61.6645L60.5476 13.9366ZM59.625 11.2173L57.1727 4.12757L54.7205 11.2173H59.625Z" fill="#00D83C"/>
<path d="M82.0309 17.1658H78.6318L70.935 5.5358V17.1658H67.5359V0.194238H70.935L78.6318 11.8486V0.194238H82.0309V17.1658Z" fill="#00D83C"/>
<path d="M88.7893 14.4708H94.3736V17.1658H85.3901V0.218519H88.7893V14.4708Z" fill="#262626"/>
<path d="M99.9333 0.218519V17.1658H96.5341V0.218519H99.9333Z" fill="#262626"/>
<path d="M113.756 0.218519V2.96214H106.691V7.30823H112.105V10.0033H106.691V17.1658H103.292V0.218519H113.756Z" fill="#262626"/>
<path d="M119.566 2.96214V7.21111H125.272V9.90617H119.566V14.3979H126V17.1658H116.167V0.194238H126V2.96214H119.566Z" fill="#262626"/>
</svg>
