<svg width="125" height="18" viewBox="0 0 125 18" fill="none" xmlns="http://www.w3.org/2000/svg">
<path d="M16.704 0.248L10.56 17H6.48L0.336 0.248H3.936L8.544 13.568L13.128 0.248H16.704ZM22.0785 2.96V7.16H27.7185V9.824H22.0785V14.264H28.4385V17H18.7185V0.223999H28.4385V2.96H22.0785ZM43.1559 5.288C42.7719 4.584 42.2439 4.048 41.5719 3.68C40.8999 3.312 40.1159 3.128 39.2199 3.128C38.2279 3.128 37.3479 3.352 36.5799 3.8C35.8119 4.248 35.2119 4.888 34.7799 5.72C34.3479 6.552 34.1319 7.512 34.1319 8.6C34.1319 9.72 34.3479 10.696 34.7799 11.528C35.2279 12.36 35.8439 13 36.6279 13.448C37.4119 13.896 38.3239 14.12 39.3639 14.12C40.6439 14.12 41.6919 13.784 42.5079 13.112C43.3239 12.424 43.8599 11.472 44.1159 10.256H38.3559V7.688H47.4279V10.616C47.2039 11.784 46.7239 12.864 45.9879 13.856C45.2519 14.848 44.2999 15.648 43.1319 16.256C41.9799 16.848 40.6839 17.144 39.2439 17.144C37.6279 17.144 36.1639 16.784 34.8519 16.064C33.5559 15.328 32.5319 14.312 31.7799 13.016C31.0439 11.72 30.6759 10.248 30.6759 8.6C30.6759 6.952 31.0439 5.48 31.7799 4.184C32.5319 2.872 33.5559 1.856 34.8519 1.136C36.1639 0.4 37.6199 0.0319996 39.2199 0.0319996C41.1079 0.0319996 42.7479 0.495999 44.1399 1.424C45.5319 2.336 46.4919 3.624 47.0199 5.288H43.1559ZM60.1858 13.808H53.5138L52.4098 17H48.8818L54.9058 0.223999H58.8178L64.8418 17H61.2898L60.1858 13.808ZM59.2738 11.12L56.8498 4.112L54.4258 11.12H59.2738ZM81.4215 17H78.0615L70.4535 5.504V17H67.0935V0.223999H70.4535L78.0615 11.744V0.223999H81.4215V17Z" fill="#00D83C"/>
<path d="M88.1019 14.336H93.6219V17H84.7419V0.248H88.1019V14.336ZM99.1176 0.248V17H95.7576V0.248H99.1176ZM112.781 0.248V2.96H105.797V7.256H111.149V9.92H105.797V17H102.437V0.248H112.781ZM118.524 2.96V7.16H124.164V9.824H118.524V14.264H124.884V17H115.164V0.223999H124.884V2.96H118.524Z" fill="#262626"/>
</svg>
