<svg width="21" height="20" viewBox="0 0 21 20" fill="none" xmlns="http://www.w3.org/2000/svg">
<path d="M18.855 0H3.11106C1.93951 0 0.986877 0.996667 0.986877 2.22222V17.7778C0.986877 19.0033 1.93951 20 3.11106 20H18.855C20.0265 20 20.9792 19.0033 20.9792 17.7778V2.22222C20.9792 0.996667 20.0265 0 18.855 0ZM18.855 17.7778H3.11106C3.05408 17.7778 3.01509 17.76 2.9981 17.76C2.9911 17.76 2.98711 17.7622 2.98611 17.7689L2.97411 2.27333C2.98111 2.26222 3.02609 2.22222 3.11106 2.22222H18.855C18.934 2.22333 18.9769 2.25333 18.9799 2.23111L18.9919 17.7267C18.9849 17.7378 18.9399 17.7778 18.855 17.7778Z" fill="white"/>
<path d="M4.98541 4.44434H10.9831V11.111H4.98541V4.44434ZM11.9827 13.3332H4.98541V15.5554H16.9808V13.3332H12.9823H11.9827ZM12.9823 8.88878H16.9808V11.111H12.9823V8.88878ZM12.9823 4.44434H16.9808V6.66656H12.9823V4.44434Z" fill="white"/>
</svg>
