<svg width="82" height="72" viewBox="0 0 82 72" fill="none" xmlns="http://www.w3.org/2000/svg">
<path fill-rule="evenodd" clip-rule="evenodd" d="M38.9931 69.2206C38.1599 70.3825 38.9941 71.9799 40.4202 71.8765C61.4636 70.3506 78 54.8709 78 36C78 17.1291 61.4636 1.64939 40.4202 0.123474C38.9941 0.0200641 38.1599 1.61747 38.9931 2.77945L62.081 34.9767C62.5196 35.5884 62.5196 36.4116 62.081 37.0233L38.9931 69.2206Z" fill="#E5E5E5"/>
<circle cx="37" cy="36" r="32" fill="#00A62F"/>
<path d="M49.6 20H24.4C22.5248 20 21 21.5947 21 23.5556V48.4444C21 50.4053 22.5248 52 24.4 52H49.6C51.4752 52 53 50.4053 53 48.4444V23.5556C53 21.5947 51.4752 20 49.6 20ZM49.6 48.4444H24.4C24.3088 48.4444 24.2464 48.416 24.2192 48.416C24.208 48.416 24.2016 48.4196 24.2 48.4302L24.1808 23.6373C24.192 23.6196 24.264 23.5556 24.4 23.5556H49.6C49.7264 23.5573 49.7952 23.6053 49.8 23.5698L49.8192 48.3627C49.808 48.3804 49.736 48.4444 49.6 48.4444Z" fill="white"/>
<path d="M27.4004 27.1108H37.0004V37.7775H27.4004V27.1108ZM38.6004 41.3331H27.4004V44.8886H46.6004V41.3331H40.2004H38.6004ZM40.2004 34.222H46.6004V37.7775H40.2004V34.222ZM40.2004 27.1108H46.6004V30.6664H40.2004V27.1108Z" fill="white"/>
</svg>
