<svg width="21" height="22" viewBox="0 0 21 22" fill="none" xmlns="http://www.w3.org/2000/svg">
<path d="M18.6292 16.6862L17.0138 15.2308V9.58974C17.0138 6.12615 14.9601 3.22667 11.3786 2.45949V1.69231C11.3786 0.755897 10.5396 0 9.50021 0C8.46084 0 7.62183 0.755897 7.62183 1.69231V2.45949C4.02785 3.22667 1.98668 6.11487 1.98668 9.58974V15.2308L0.371265 16.6862C-0.417656 17.3969 0.133337 18.6154 1.24784 18.6154H17.7401C18.8671 18.6154 19.4181 17.3969 18.6292 16.6862ZM14.5092 16.359H4.49119V9.58974C4.49119 6.7918 6.3821 4.51282 9.50021 4.51282C12.6183 4.51282 14.5092 6.7918 14.5092 9.58974V16.359ZM9.50021 22C10.8777 22 12.0047 20.9846 12.0047 19.7436H6.9957C6.9957 20.342 7.25957 20.916 7.72926 21.3391C8.19894 21.7623 8.83598 22 9.50021 22Z" fill="#404040"/>
<circle cx="15.5" cy="8.5" r="5" fill="#FF2929" stroke="white"/>
</svg>
