<svg width="82" height="72" viewBox="0 0 82 72" fill="none" xmlns="http://www.w3.org/2000/svg">
<path fill-rule="evenodd" clip-rule="evenodd" d="M38.9931 69.2206C38.1599 70.3825 38.9941 71.9799 40.4202 71.8765C61.4636 70.3506 78 54.8709 78 36C78 17.1291 61.4636 1.64939 40.4202 0.123474C38.9941 0.0200641 38.1599 1.61747 38.9931 2.77945L62.081 34.9767C62.5196 35.5884 62.5196 36.4116 62.081 37.0233L38.9931 69.2206Z" fill="#E5E5E5"/>
<circle cx="37" cy="36" r="32" fill="#00A62F"/>
<path d="M48 41.4257C48 47.4857 43.0751 52.3983 37 52.3983C30.9249 52.3983 26 47.4857 26 41.4257C26 35.3657 30.9249 30.4532 37 30.4532C43.0751 30.4532 48 35.3657 48 41.4257Z" fill="#00A62F"/>
<path d="M37.7485 30.5181C37.0537 26.2736 36.4468 23.3623 42.3698 22.175C42.5397 21.8001 42.6179 21.5804 42.3698 20.9739C38.0336 21.3726 36.6577 22.4663 35.7308 25.7135C34.6552 22.0174 33.2923 20.5314 28.1154 20C28.7236 25.8816 30.9143 26.9993 35.7308 27.921L36.1538 30.5181M48 41.4257C48 47.4857 43.0751 52.3983 37 52.3983C30.9249 52.3983 26 47.4857 26 41.4257C26 35.3657 30.9249 30.4532 37 30.4532C43.0751 30.4532 48 35.3657 48 41.4257Z" stroke="white" stroke-width="3.09327"/>
</svg>
