<svg width="16" height="23" viewBox="0 0 16 23" fill="none" xmlns="http://www.w3.org/2000/svg">
<path d="M8.2467 8.49299C7.81795 5.87278 7.44342 4.07563 11.0984 3.34269C11.2032 3.11123 11.2515 2.97563 11.0984 2.6012C8.42263 2.84735 7.57357 3.5225 7.00159 5.52706C6.33789 3.24537 5.49685 2.32802 2.30231 2C2.67763 5.63083 4.02944 6.32077 7.00159 6.88978L7.26266 8.49299M14.5727 15.2265C14.5727 18.9674 11.5336 22 7.78481 22C4.03598 22 0.996948 18.9674 0.996948 15.2265C0.996948 11.4855 4.03598 8.4529 7.78481 8.4529C11.5336 8.4529 14.5727 11.4855 14.5727 15.2265Z" stroke="white" stroke-width="1.90952"/>
</svg>
