<svg width="23" height="24" viewBox="0 0 23 24" fill="none" xmlns="http://www.w3.org/2000/svg">
<path d="M5.85413 16.2105H18.0976M18.0976 14.6316V17.7895M5.85413 14.6316V17.7895M5.85413 12.5921C5.22371 12.4731 4.62492 12.2358 4.09317 11.8941C3.56142 11.5525 3.10751 11.1135 2.75828 10.6031C2.40905 10.0926 2.17159 9.52115 2.05995 8.92243C1.9483 8.32371 1.96474 7.70989 2.10828 7.11728C2.25183 6.52467 2.51957 5.9653 2.89567 5.47225C3.27177 4.97919 3.7486 4.56247 4.29795 4.24672C4.8473 3.93096 5.45803 3.7226 6.09401 3.63394C6.72999 3.54527 7.37831 3.57812 8.00063 3.73053C8.45029 3.19066 9.02369 2.75439 9.6776 2.45462C10.3315 2.15485 11.0488 1.9994 11.7755 2C12.5231 1.99939 13.2606 2.16389 13.9291 2.48041C14.5976 2.79693 15.1787 3.25673 15.6261 3.82316C16.2496 3.62313 16.9099 3.54633 17.566 3.5975C18.2221 3.64867 18.8602 3.82674 19.4406 4.12066C20.021 4.41458 20.5314 4.81809 20.9402 5.30619C21.3489 5.79429 21.6473 6.35657 21.8169 6.95821C21.9865 7.55984 22.0236 8.188 21.926 8.80376C21.8284 9.41952 21.5981 10.0098 21.2494 10.5379C20.9007 11.066 20.441 11.5208 19.8989 11.8741C19.3567 12.2274 18.7436 12.4716 18.0976 12.5916V20.9474C18.0976 21.2265 17.9804 21.4943 17.7716 21.6917C17.5629 21.8891 17.2798 22 16.9846 22H6.96717C6.67197 22 6.38887 21.8891 6.18013 21.6917C5.97139 21.4943 5.85413 21.2265 5.85413 20.9474V12.5921Z" stroke="white" stroke-width="2.00425" stroke-linecap="round" stroke-linejoin="round"/>
</svg>
