<svg width="82" height="72" viewBox="0 0 82 72" fill="none" xmlns="http://www.w3.org/2000/svg">
<path fill-rule="evenodd" clip-rule="evenodd" d="M38.9931 69.2206C38.1599 70.3825 38.9941 71.9799 40.4202 71.8765C61.4636 70.3506 78 54.8709 78 36C78 17.1291 61.4636 1.64939 40.4202 0.123474C38.9941 0.0200641 38.1599 1.61747 38.9931 2.77945L62.081 34.9767C62.5196 35.5884 62.5196 36.4116 62.081 37.0233L38.9931 69.2206Z" fill="#E5E5E5"/>
<circle cx="37" cy="36" r="32" fill="#00A62F"/>
<path d="M27.19 42.7368H46.7871M46.7871 40.2105V45.2632M27.19 40.2105V45.2632M27.19 36.9474C26.1809 36.757 25.2225 36.3772 24.3714 35.8306C23.5202 35.284 22.7937 34.5816 22.2347 33.7649C21.6757 32.9482 21.2957 32.0338 21.117 31.0759C20.9383 30.1179 20.9646 29.1358 21.1943 28.1877C21.4241 27.2395 21.8526 26.3445 22.4546 25.5556C23.0566 24.7667 23.8198 24.1 24.6991 23.5947C25.5784 23.0895 26.556 22.7562 27.5739 22.6143C28.5919 22.4724 29.6296 22.525 30.6257 22.7688C31.3455 21.9051 32.2633 21.207 33.3099 20.7274C34.3566 20.2478 35.5047 19.999 36.6679 20C37.8645 19.999 39.0449 20.2622 40.1149 20.7687C41.1849 21.2751 42.115 22.0108 42.8312 22.9171C43.8291 22.597 44.886 22.4741 45.9362 22.556C46.9865 22.6379 48.0077 22.9228 48.9367 23.3931C49.8657 23.8633 50.6827 24.5089 51.337 25.2899C51.9912 26.0709 52.4689 26.9705 52.7403 27.9331C53.0117 28.8957 53.0712 29.9008 52.9149 30.886C52.7587 31.8712 52.3901 32.8156 51.8319 33.6606C51.2738 34.5057 50.5381 35.2333 49.6703 35.7986C48.8025 36.3638 47.8212 36.7545 46.7871 36.9465V50.3158C46.7871 50.7625 46.5994 51.1909 46.2653 51.5067C45.9312 51.8226 45.4781 52 45.0056 52H28.9715C28.499 52 28.0459 51.8226 27.7118 51.5067C27.3777 51.1909 27.19 50.7625 27.19 50.3158V36.9474Z" stroke="white" stroke-width="3.20681" stroke-linecap="round" stroke-linejoin="round"/>
</svg>
