<svg width="19" height="22" viewBox="0 0 19 22" fill="none" xmlns="http://www.w3.org/2000/svg">
<path d="M3.47368 5.78947C3.47368 4.25401 4.08364 2.78143 5.16938 1.6957C6.25512 0.609961 7.72769 0 9.26316 0C10.7986 0 12.2712 0.609961 13.3569 1.6957C14.4427 2.78143 15.0526 4.25401 15.0526 5.78947C15.0526 7.32494 14.4427 8.79751 13.3569 9.88325C12.2712 10.969 10.7986 11.5789 9.26316 11.5789C7.72769 11.5789 6.25512 10.969 5.16938 9.88325C4.08364 8.79751 3.47368 7.32494 3.47368 5.78947ZM9.26316 9.26316C10.1844 9.26316 11.068 8.89718 11.7194 8.24574C12.3709 7.5943 12.7368 6.71075 12.7368 5.78947C12.7368 4.8682 12.3709 3.98465 11.7194 3.33321C11.068 2.68177 10.1844 2.31579 9.26316 2.31579C8.34188 2.31579 7.45833 2.68177 6.80689 3.33321C6.15545 3.98465 5.78947 4.8682 5.78947 5.78947C5.78947 6.71075 6.15545 7.5943 6.80689 8.24574C7.45833 8.89718 8.34188 9.26316 9.26316 9.26316Z" fill="white"/>
<path fill-rule="evenodd" clip-rule="evenodd" d="M2.71295 15.4498C1.85279 16.31 1.17049 17.3312 0.705006 18.4551C0.239517 19.579 -4.4319e-05 20.7835 6.14985e-09 22H2.31579H16.2105H18.5263C18.5264 20.1679 17.9831 18.3769 16.9653 16.8535C15.9475 15.3301 14.5007 14.1428 12.8081 13.4416C11.1154 12.7405 9.25283 12.5571 7.45591 12.9145C5.65899 13.272 4.00842 14.1542 2.71295 15.4498ZM9.26316 15.0526C7.4206 15.0526 5.65351 15.7846 4.35063 17.0875C3.61083 17.8273 3.05511 18.7167 2.71295 19.6847H15.8134C15.4712 18.7167 14.9155 17.8273 14.1757 17.0875C12.8728 15.7846 11.1057 15.0526 9.26316 15.0526Z" fill="white"/>
</svg>
